ISO-10303-21;
HEADER;
/* Generated by software containing ST-Developer
 * from STEP Tools, Inc. (www.steptools.com) 
 */
/* OPTION: using custom renumber hook */

FILE_DESCRIPTION(
/* description */ ('STEP AP242 Edition 2',
'CAx-IF Rec.Pracs.---Representation and Presentation of Product Manufa
cturing Information (PMI)---4.0---2014-10-13',
'CAx-IF Rec.Pracs.---3D Tessellated Geometry---0.4---2014-09-14','2;1',
'CAx-IF Rec.Pracs.---User Defined Attributes---1.5---2016-08-15'),
/* implementation_level */ '2;1');

FILE_NAME(
/* name */ 'Part Studio 1 Copy 1 - RectangleCircleLoft_50mm_50mm_100mm',

/* time_stamp */ '2026-04-20T12:25:58Z',
/* author */ (''),
/* organization */ (''),
/* preprocessor_version */ 'ST-DEVELOPER v20',
/* originating_system */ 'ONSHAPE BY PTC INC, 1.213',
/* authorisation */ '  ');

FILE_SCHEMA (('AP242_MANAGED_MODEL_BASED_3D_ENGINEERING_MIM_LF { 1 0 10303 442 3 1 4 }'));
ENDSEC;

DATA;
#10=SHAPE_REPRESENTATION_RELATIONSHIP('','',#192,#11);
#11=ADVANCED_BREP_SHAPE_REPRESENTATION('',(#190),#572);
#12=B_SPLINE_CURVE_WITH_KNOTS('',3,(#300,#301,#302,#303),.UNSPECIFIED.,
 .F.,.F.,(4,4),(5.13478148889135E-16,0.100000167357574),.UNSPECIFIED.);
#13=B_SPLINE_CURVE_WITH_KNOTS('',3,(#554,#555,#556,#557),.UNSPECIFIED.,
 .F.,.F.,(4,4),(0.,0.100000167357572),.UNSPECIFIED.);
#14=CIRCLE('',#195,0.025);
#15=CIRCLE('',#196,0.025);
#16=CIRCLE('',#197,0.025);
#17=CIRCLE('',#198,0.025);
#18=CIRCLE('',#199,0.025);
#19=B_SPLINE_SURFACE_WITH_KNOTS('',3,1,((#261,#262),(#263,#264),(#265,#266),
(#267,#268),(#269,#270),(#271,#272),(#273,#274),(#275,#276),(#277,#278),
(#279,#280),(#281,#282),(#283,#284),(#285,#286),(#287,#288),(#289,#290),
(#291,#292),(#293,#294),(#295,#296)),.RULED_SURF.,.F.,.F.,.F.,(4,2,2,2,
2,2,2,2,4),(2,2),(0.55736,0.5625,0.625,0.6875,0.75,0.8125,0.875,0.9375,
1.),(0.,1.),.UNSPECIFIED.);
#20=B_SPLINE_SURFACE_WITH_KNOTS('',3,1,((#305,#306),(#307,#308),(#309,#310),
(#311,#312),(#313,#314),(#315,#316),(#317,#318),(#319,#320),(#321,#322),
(#323,#324),(#325,#326),(#327,#328),(#329,#330),(#331,#332),(#333,#334),
(#335,#336),(#337,#338),(#339,#340),(#341,#342),(#343,#344),(#345,#346),
(#347,#348),(#349,#350),(#351,#352),(#353,#354),(#355,#356),(#357,#358),
(#359,#360),(#361,#362),(#363,#364),(#365,#366),(#367,#368),(#369,#370),
(#371,#372)),.RULED_SURF.,.F.,.F.,.F.,(4,2,2,2,2,2,2,2,2,2,2,2,2,2,2,2,
4),(2,2),(0.,0.0625,0.125,0.1875,0.25,0.3125,0.375,0.4375,0.5,0.5625,0.625,
0.6875,0.75,0.8125,0.875,0.9375,1.),(0.,1.),.UNSPECIFIED.);
#21=B_SPLINE_SURFACE_WITH_KNOTS('',3,1,((#378,#379),(#380,#381),(#382,#383),
(#384,#385),(#386,#387),(#388,#389),(#390,#391),(#392,#393),(#394,#395),
(#396,#397),(#398,#399),(#400,#401),(#402,#403),(#404,#405),(#406,#407),
(#408,#409),(#410,#411),(#412,#413),(#414,#415),(#416,#417),(#418,#419),
(#420,#421),(#422,#423),(#424,#425),(#426,#427),(#428,#429),(#430,#431),
(#432,#433),(#434,#435),(#436,#437),(#438,#439),(#440,#441),(#442,#443),
(#444,#445)),.RULED_SURF.,.F.,.F.,.F.,(4,2,2,2,2,2,2,2,2,2,2,2,2,2,2,2,
4),(2,2),(0.,0.0625,0.125,0.1875,0.25,0.3125,0.375,0.4375,0.5,0.5625,0.625,
0.6875,0.75,0.8125,0.875,0.9375,1.),(0.,1.),.UNSPECIFIED.);
#22=B_SPLINE_SURFACE_WITH_KNOTS('',3,1,((#449,#450),(#451,#452),(#453,#454),
(#455,#456),(#457,#458),(#459,#460),(#461,#462),(#463,#464),(#465,#466),
(#467,#468),(#469,#470),(#471,#472),(#473,#474),(#475,#476),(#477,#478),
(#479,#480),(#481,#482),(#483,#484),(#485,#486),(#487,#488),(#489,#490),
(#491,#492),(#493,#494),(#495,#496),(#497,#498),(#499,#500),(#501,#502),
(#503,#504),(#505,#506),(#507,#508),(#509,#510),(#511,#512),(#513,#514),
(#515,#516)),.RULED_SURF.,.F.,.F.,.F.,(4,2,2,2,2,2,2,2,2,2,2,2,2,2,2,2,
4),(2,2),(0.,0.0625,0.125,0.1875,0.25,0.3125,0.375,0.4375,0.5,0.5625,0.625,
0.6875,0.75,0.8125,0.875,0.9375,1.),(0.,1.),.UNSPECIFIED.);
#23=B_SPLINE_SURFACE_WITH_KNOTS('',3,1,((#518,#519),(#520,#521),(#522,#523),
(#524,#525),(#526,#527),(#528,#529),(#530,#531),(#532,#533),(#534,#535),
(#536,#537),(#538,#539),(#540,#541),(#542,#543),(#544,#545),(#546,#547),
(#548,#549),(#550,#551),(#552,#553)),.RULED_SURF.,.F.,.F.,.F.,(4,2,2,2,
2,2,2,2,4),(2,2),(0.,0.0625,0.125,0.1875,0.25,0.3125,0.375,0.4375,0.44264),
(0.,1.),.UNSPECIFIED.);
#24=ORIENTED_EDGE('',*,*,#72,.F.);
#25=ORIENTED_EDGE('',*,*,#73,.F.);
#26=ORIENTED_EDGE('',*,*,#74,.F.);
#27=ORIENTED_EDGE('',*,*,#75,.F.);
#28=ORIENTED_EDGE('',*,*,#76,.F.);
#29=ORIENTED_EDGE('',*,*,#77,.F.);
#30=ORIENTED_EDGE('',*,*,#78,.T.);
#31=ORIENTED_EDGE('',*,*,#79,.F.);
#32=ORIENTED_EDGE('',*,*,#80,.F.);
#33=ORIENTED_EDGE('',*,*,#81,.T.);
#34=ORIENTED_EDGE('',*,*,#77,.T.);
#35=ORIENTED_EDGE('',*,*,#82,.T.);
#36=ORIENTED_EDGE('',*,*,#83,.F.);
#37=ORIENTED_EDGE('',*,*,#84,.F.);
#38=ORIENTED_EDGE('',*,*,#74,.T.);
#39=ORIENTED_EDGE('',*,*,#85,.T.);
#40=ORIENTED_EDGE('',*,*,#84,.T.);
#41=ORIENTED_EDGE('',*,*,#86,.F.);
#42=ORIENTED_EDGE('',*,*,#87,.F.);
#43=ORIENTED_EDGE('',*,*,#75,.T.);
#44=ORIENTED_EDGE('',*,*,#87,.T.);
#45=ORIENTED_EDGE('',*,*,#88,.F.);
#46=ORIENTED_EDGE('',*,*,#82,.F.);
#47=ORIENTED_EDGE('',*,*,#76,.T.);
#48=ORIENTED_EDGE('',*,*,#89,.F.);
#49=ORIENTED_EDGE('',*,*,#90,.F.);
#50=ORIENTED_EDGE('',*,*,#85,.F.);
#51=ORIENTED_EDGE('',*,*,#73,.T.);
#52=ORIENTED_EDGE('',*,*,#91,.F.);
#53=ORIENTED_EDGE('',*,*,#92,.F.);
#54=ORIENTED_EDGE('',*,*,#93,.T.);
#55=ORIENTED_EDGE('',*,*,#80,.T.);
#56=ORIENTED_EDGE('',*,*,#88,.T.);
#57=ORIENTED_EDGE('',*,*,#86,.T.);
#58=ORIENTED_EDGE('',*,*,#83,.T.);
#59=ORIENTED_EDGE('',*,*,#90,.T.);
#60=ORIENTED_EDGE('',*,*,#91,.T.);
#61=ORIENTED_EDGE('',*,*,#89,.T.);
#62=ORIENTED_EDGE('',*,*,#72,.T.);
#63=ORIENTED_EDGE('',*,*,#94,.F.);
#64=ORIENTED_EDGE('',*,*,#95,.T.);
#65=ORIENTED_EDGE('',*,*,#78,.F.);
#66=ORIENTED_EDGE('',*,*,#81,.F.);
#67=ORIENTED_EDGE('',*,*,#93,.F.);
#68=ORIENTED_EDGE('',*,*,#92,.T.);
#69=ORIENTED_EDGE('',*,*,#94,.T.);
#70=ORIENTED_EDGE('',*,*,#79,.T.);
#71=ORIENTED_EDGE('',*,*,#95,.F.);
#72=EDGE_CURVE('',#96,#97,#112,.T.);
#73=EDGE_CURVE('',#98,#96,#113,.T.);
#74=EDGE_CURVE('',#99,#98,#114,.F.);
#75=EDGE_CURVE('',#100,#99,#115,.F.);
#76=EDGE_CURVE('',#101,#100,#116,.T.);
#77=EDGE_CURVE('',#102,#101,#117,.T.);
#78=EDGE_CURVE('',#102,#103,#118,.T.);
#79=EDGE_CURVE('',#97,#103,#119,.T.);
#80=EDGE_CURVE('',#104,#105,#14,.T.);
#81=EDGE_CURVE('',#104,#102,#12,.T.);
#82=EDGE_CURVE('',#101,#105,#120,.T.);
#83=EDGE_CURVE('',#106,#107,#15,.T.);
#84=EDGE_CURVE('',#99,#106,#121,.T.);
#85=EDGE_CURVE('',#98,#107,#122,.T.);
#86=EDGE_CURVE('',#108,#106,#16,.T.);
#87=EDGE_CURVE('',#100,#108,#123,.T.);
#88=EDGE_CURVE('',#105,#108,#17,.T.);
#89=EDGE_CURVE('',#109,#96,#13,.T.);
#90=EDGE_CURVE('',#107,#109,#18,.T.);
#91=EDGE_CURVE('',#110,#109,#124,.T.);
#92=EDGE_CURVE('',#111,#110,#125,.T.);
#93=EDGE_CURVE('',#111,#104,#126,.T.);
#94=EDGE_CURVE('',#110,#97,#127,.T.);
#95=EDGE_CURVE('',#111,#103,#128,.T.);
#96=VERTEX_POINT('',#246);
#97=VERTEX_POINT('',#247);
#98=VERTEX_POINT('',#249);
#99=VERTEX_POINT('',#251);
#100=VERTEX_POINT('',#253);
#101=VERTEX_POINT('',#255);
#102=VERTEX_POINT('',#257);
#103=VERTEX_POINT('',#259);
#104=VERTEX_POINT('',#298);
#105=VERTEX_POINT('',#299);
#106=VERTEX_POINT('',#374);
#107=VERTEX_POINT('',#375);
#108=VERTEX_POINT('',#447);
#109=VERTEX_POINT('',#558);
#110=VERTEX_POINT('',#562);
#111=VERTEX_POINT('',#564);
#112=LINE('',#245,#129);
#113=LINE('',#248,#130);
#114=LINE('',#250,#131);
#115=LINE('',#252,#132);
#116=LINE('',#254,#133);
#117=LINE('',#256,#134);
#118=LINE('',#258,#135);
#119=LINE('',#260,#136);
#120=LINE('',#304,#137);
#121=LINE('',#376,#138);
#122=LINE('',#377,#139);
#123=LINE('',#448,#140);
#124=LINE('',#561,#141);
#125=LINE('',#563,#142);
#126=LINE('',#565,#143);
#127=LINE('',#567,#144);
#128=LINE('',#569,#145);
#129=VECTOR('',#208,1.);
#130=VECTOR('',#209,1.);
#131=VECTOR('',#210,1.);
#132=VECTOR('',#211,1.);
#133=VECTOR('',#212,1.);
#134=VECTOR('',#213,1.);
#135=VECTOR('',#214,1.);
#136=VECTOR('',#215,1.);
#137=VECTOR('',#218,1.);
#138=VECTOR('',#221,1.);
#139=VECTOR('',#222,1.);
#140=VECTOR('',#225,1.);
#141=VECTOR('',#232,1.);
#142=VECTOR('',#233,1.);
#143=VECTOR('',#234,1.);
#144=VECTOR('',#237,1.);
#145=VECTOR('',#240,1.);
#146=EDGE_LOOP('',(#24,#25,#26,#27,#28,#29,#30,#31));
#147=EDGE_LOOP('',(#32,#33,#34,#35));
#148=EDGE_LOOP('',(#36,#37,#38,#39));
#149=EDGE_LOOP('',(#40,#41,#42,#43));
#150=EDGE_LOOP('',(#44,#45,#46,#47));
#151=EDGE_LOOP('',(#48,#49,#50,#51));
#152=EDGE_LOOP('',(#52,#53,#54,#55,#56,#57,#58,#59));
#153=EDGE_LOOP('',(#60,#61,#62,#63));
#154=EDGE_LOOP('',(#64,#65,#66,#67));
#155=EDGE_LOOP('',(#68,#69,#70,#71));
#156=FACE_BOUND('',#146,.T.);
#157=FACE_BOUND('',#147,.T.);
#158=FACE_BOUND('',#148,.T.);
#159=FACE_BOUND('',#149,.T.);
#160=FACE_BOUND('',#150,.T.);
#161=FACE_BOUND('',#151,.T.);
#162=FACE_BOUND('',#152,.T.);
#163=FACE_BOUND('',#153,.T.);
#164=FACE_BOUND('',#154,.T.);
#165=FACE_BOUND('',#155,.T.);
#166=PLANE('',#194);
#167=PLANE('',#200);
#168=PLANE('',#201);
#169=PLANE('',#202);
#170=PLANE('',#203);
#171=ADVANCED_FACE('',(#156),#166,.F.);
#172=ADVANCED_FACE('',(#157),#19,.T.);
#173=ADVANCED_FACE('',(#158),#20,.T.);
#174=ADVANCED_FACE('',(#159),#21,.T.);
#175=ADVANCED_FACE('',(#160),#22,.T.);
#176=ADVANCED_FACE('',(#161),#23,.T.);
#177=ADVANCED_FACE('',(#162),#167,.T.);
#178=ADVANCED_FACE('',(#163),#168,.F.);
#179=ADVANCED_FACE('',(#164),#169,.T.);
#180=ADVANCED_FACE('',(#165),#170,.F.);
#181=CLOSED_SHELL('',(#171,#172,#173,#174,#175,#176,#177,#178,#179,#180));
#182=STYLED_ITEM('',(#183),#190);
#183=PRESENTATION_STYLE_ASSIGNMENT((#184));
#184=SURFACE_STYLE_USAGE(.BOTH.,#185);
#185=SURFACE_SIDE_STYLE('',(#186));
#186=SURFACE_STYLE_FILL_AREA(#187);
#187=FILL_AREA_STYLE('',(#188));
#188=FILL_AREA_STYLE_COLOUR('',#189);
#189=COLOUR_RGB('',0.647058823529412,0.647058823529412,0.647058823529412);
#190=MANIFOLD_SOLID_BREP('RectangleCircleLoft_50mm_50mm_100mm',#181);
#191=SHAPE_DEFINITION_REPRESENTATION(#577,#192);
#192=SHAPE_REPRESENTATION('RectangleCircleLoft_50mm_50mm_100mm',(#193),
#572);
#193=AXIS2_PLACEMENT_3D('',#243,#204,#205);
#194=AXIS2_PLACEMENT_3D('',#244,#206,#207);
#195=AXIS2_PLACEMENT_3D('',#297,#216,#217);
#196=AXIS2_PLACEMENT_3D('',#373,#219,#220);
#197=AXIS2_PLACEMENT_3D('',#446,#223,#224);
#198=AXIS2_PLACEMENT_3D('',#517,#226,#227);
#199=AXIS2_PLACEMENT_3D('',#559,#228,#229);
#200=AXIS2_PLACEMENT_3D('',#560,#230,#231);
#201=AXIS2_PLACEMENT_3D('',#566,#235,#236);
#202=AXIS2_PLACEMENT_3D('',#568,#238,#239);
#203=AXIS2_PLACEMENT_3D('',#570,#241,#242);
#204=DIRECTION('',(0.,0.,1.));
#205=DIRECTION('',(1.,0.,0.));
#206=DIRECTION('',(1.,0.,0.));
#207=DIRECTION('',(0.,1.,0.));
#208=DIRECTION('',(0.,2.89120579329468E-16,-1.));
#209=DIRECTION('',(0.,-1.,0.));
#210=DIRECTION('',(0.,-6.93889390390723E-17,-1.));
#211=DIRECTION('',(0.,-1.,0.));
#212=DIRECTION('',(0.,-6.93889390390723E-17,-1.));
#213=DIRECTION('',(0.,-1.,0.));
#214=DIRECTION('',(0.,2.89120579329468E-16,-1.));
#215=DIRECTION('',(0.,-1.,0.));
#216=DIRECTION('',(1.,0.,0.));
#217=DIRECTION('',(0.,0.,-1.));
#218=DIRECTION('',(0.994681086870425,0.0728338363065856,-0.0728338363065856));
#219=DIRECTION('',(1.,0.,0.));
#220=DIRECTION('',(0.,0.,-1.));
#221=DIRECTION('',(0.994681086870425,-0.0728338363065857,0.0728338363065854));
#222=DIRECTION('',(0.994681086870425,-0.0728338363065856,-0.0728338363065856));
#223=DIRECTION('',(1.,0.,0.));
#224=DIRECTION('',(0.,0.,-1.));
#225=DIRECTION('',(0.994681086870425,0.0728338363065854,0.0728338363065858));
#226=DIRECTION('',(1.,0.,0.));
#227=DIRECTION('',(0.,0.,-1.));
#228=DIRECTION('',(1.,0.,0.));
#229=DIRECTION('',(0.,0.,-1.));
#230=DIRECTION('',(1.,0.,0.));
#231=DIRECTION('',(0.,1.,0.));
#232=DIRECTION('',(0.,-2.89120579329468E-16,1.));
#233=DIRECTION('',(0.,1.,0.));
#234=DIRECTION('',(0.,-2.89120579329468E-16,1.));
#235=DIRECTION('',(0.,1.,2.89120579329468E-16));
#236=DIRECTION('',(0.,-2.89120579329468E-16,1.));
#237=DIRECTION('',(-1.,0.,0.));
#238=DIRECTION('',(0.,1.,2.89120579329468E-16));
#239=DIRECTION('',(0.,-2.89120579329468E-16,1.));
#240=DIRECTION('',(-1.,0.,0.));
#241=DIRECTION('',(0.,0.,-1.));
#242=DIRECTION('',(-1.,0.,0.));
#243=CARTESIAN_POINT('',(0.,0.,0.));
#244=CARTESIAN_POINT('',(0.,0.,0.));
#245=CARTESIAN_POINT('',(0.,0.003,0.022));
#246=CARTESIAN_POINT('',(0.,0.003,0.025));
#247=CARTESIAN_POINT('',(0.,0.003,0.019));
#248=CARTESIAN_POINT('',(0.,3.46944695195361E-18,0.025));
#249=CARTESIAN_POINT('',(0.,0.025,0.025));
#250=CARTESIAN_POINT('',(0.,0.025,0.));
#251=CARTESIAN_POINT('',(3.46944695195361E-18,0.025,-0.025));
#252=CARTESIAN_POINT('',(0.,0.,-0.025));
#253=CARTESIAN_POINT('',(3.46944695195361E-18,-0.025,-0.025));
#254=CARTESIAN_POINT('',(0.,-0.025,0.));
#255=CARTESIAN_POINT('',(0.,-0.025,0.025));
#256=CARTESIAN_POINT('',(0.,3.46944695195361E-18,0.025));
#257=CARTESIAN_POINT('',(0.,-0.003,0.025));
#258=CARTESIAN_POINT('',(0.,-0.003,0.022));
#259=CARTESIAN_POINT('',(0.,-0.003,0.019));
#260=CARTESIAN_POINT('',(0.,0.,0.019));
#261=CARTESIAN_POINT('',(0.,-0.002868,0.025));
#262=CARTESIAN_POINT('',(0.1,-0.00224947541264384,0.0248985909807166));
#263=CARTESIAN_POINT('',(0.,-0.00295366666666667,0.025));
#264=CARTESIAN_POINT('',(0.1,-0.00231648495378575,0.0248925373065929));
#265=CARTESIAN_POINT('',(0.,-0.00303933333333333,0.025));
#266=CARTESIAN_POINT('',(0.1,-0.00238347004892622,0.0248862129994293));
#267=CARTESIAN_POINT('',(0.,-0.00416666666666666,0.025));
#268=CARTESIAN_POINT('',(0.1,-0.00326461210883227,0.0247994280813921));
#269=CARTESIAN_POINT('',(0.,-0.00520833333333333,0.025));
#270=CARTESIAN_POINT('',(0.1,-0.00407485496924076,0.0246792399065475));
#271=CARTESIAN_POINT('',(0.,-0.00729166666666666,0.025));
#272=CARTESIAN_POINT('',(0.1,-0.00567966113156566,0.024360024113614));
#273=CARTESIAN_POINT('',(0.,-0.00833333333333333,0.025));
#274=CARTESIAN_POINT('',(0.1,-0.00647422194993966,0.0241609969895324));
#275=CARTESIAN_POINT('',(0.,-0.0104166666666667,0.025));
#276=CARTESIAN_POINT('',(0.1,-0.00804001191278344,0.0236860197970781));
#277=CARTESIAN_POINT('',(0.,-0.0114583333333333,0.025));
#278=CARTESIAN_POINT('',(0.1,-0.00881123863409092,0.0234100704637636));
#279=CARTESIAN_POINT('',(0.,-0.0135416666666667,0.025));
#280=CARTESIAN_POINT('',(0.1,-0.0103229329841635,0.0227839061618007));
#281=CARTESIAN_POINT('',(0.,-0.0145833333333333,0.025));
#282=CARTESIAN_POINT('',(0.1,-0.0110633982734829,0.0224336921621825));
#283=CARTESIAN_POINT('',(0.,-0.0166666666666666,0.025));
#284=CARTESIAN_POINT('',(0.1,-0.012506438567817,0.0216623710552353));
#285=CARTESIAN_POINT('',(0.,-0.0177083333333334,0.025));
#286=CARTESIAN_POINT('',(0.1,-0.0132090113396325,0.021241265141576));
#287=CARTESIAN_POINT('',(0.,-0.0197916666666666,0.025));
#288=CARTESIAN_POINT('',(0.1,-0.0145695003113476,0.0203322154735513));
#289=CARTESIAN_POINT('',(0.,-0.0208333333333333,0.025));
#290=CARTESIAN_POINT('',(0.1,-0.0152274144058014,0.0198442731259995));
#291=CARTESIAN_POINT('',(0.,-0.0229166666666667,0.025));
#292=CARTESIAN_POINT('',(0.1,-0.0164922498023808,0.0188062495421374));
#293=CARTESIAN_POINT('',(0.,-0.0239583333333333,0.025));
#294=CARTESIAN_POINT('',(0.1,-0.0170991687362594,0.0182561703230679));
#295=CARTESIAN_POINT('',(0.,-0.025,0.025));
#296=CARTESIAN_POINT('',(0.1,-0.0176776695296637,0.0176776695296637));
#297=CARTESIAN_POINT('',(0.1,0.,1.53080849893419E-18));
#298=CARTESIAN_POINT('',(0.1,-0.00300000000384121,0.0248193443235524));
#299=CARTESIAN_POINT('',(0.1,-0.0176776695296637,0.0176776695296637));
#300=CARTESIAN_POINT('',(0.1,-0.00300000000194827,0.0248193443237812));
#301=CARTESIAN_POINT('',(0.0666667368025388,-0.00300000000194827,0.0249129640119069));
#302=CARTESIAN_POINT('',(0.0333333722586521,-0.003,0.0249630162810305));
#303=CARTESIAN_POINT('',(0.,-0.003,0.025));
#304=CARTESIAN_POINT('',(0.05,-0.0213388347648319,0.0213388347648319));
#305=CARTESIAN_POINT('',(0.,0.025,-0.025));
#306=CARTESIAN_POINT('',(0.1,0.0176776695296637,-0.0176776695296637));
#307=CARTESIAN_POINT('',(0.,0.025,-0.0239583333333333));
#308=CARTESIAN_POINT('',(0.1,0.0182561703230679,-0.0170991687362595));
#309=CARTESIAN_POINT('',(0.,0.025,-0.0229166666666667));
#310=CARTESIAN_POINT('',(0.1,0.0188062495421373,-0.0164922498023808));
#311=CARTESIAN_POINT('',(0.,0.025,-0.0208333333333333));
#312=CARTESIAN_POINT('',(0.1,0.0198442731259994,-0.0152274144058014));
#313=CARTESIAN_POINT('',(0.,0.025,-0.0197916666666666));
#314=CARTESIAN_POINT('',(0.1,0.0203322154735513,-0.0145695003113476));
#315=CARTESIAN_POINT('',(0.,0.025,-0.0177083333333334));
#316=CARTESIAN_POINT('',(0.1,0.021241265141576,-0.0132090113396326));
#317=CARTESIAN_POINT('',(0.,0.025,-0.0166666666666666));
#318=CARTESIAN_POINT('',(0.1,0.0216623710552353,-0.012506438567817));
#319=CARTESIAN_POINT('',(0.,0.025,-0.0145833333333333));
#320=CARTESIAN_POINT('',(0.1,0.0224336921621825,-0.0110633982734829));
#321=CARTESIAN_POINT('',(0.,0.025,-0.0135416666666667));
#322=CARTESIAN_POINT('',(0.1,0.0227839061618007,-0.0103229329841636));
#323=CARTESIAN_POINT('',(0.,0.025,-0.0114583333333333));
#324=CARTESIAN_POINT('',(0.1,0.0234100704637636,-0.00881123863409095));
#325=CARTESIAN_POINT('',(0.,0.025,-0.0104166666666667));
#326=CARTESIAN_POINT('',(0.1,0.0236860197970781,-0.00804001191278347));
#327=CARTESIAN_POINT('',(0.,0.025,-0.00833333333333334));
#328=CARTESIAN_POINT('',(0.1,0.0241609969895324,-0.00647422194993969));
#329=CARTESIAN_POINT('',(0.,0.025,-0.00729166666666667));
#330=CARTESIAN_POINT('',(0.1,0.024360024113614,-0.00567966113156566));
#331=CARTESIAN_POINT('',(0.,0.025,-0.00520833333333334));
#332=CARTESIAN_POINT('',(0.1,0.0246792399065475,-0.00407485496924077));
#333=CARTESIAN_POINT('',(0.,0.025,-0.00416666666666666));
#334=CARTESIAN_POINT('',(0.1,0.0247994280813921,-0.00326461210883229));
#335=CARTESIAN_POINT('',(0.,0.025,-0.00208333333333334));
#336=CARTESIAN_POINT('',(0.1,0.0249598082522178,-0.00163624490764576));
#337=CARTESIAN_POINT('',(0.,0.025,-0.00104166666666667));
#338=CARTESIAN_POINT('',(0.1,0.025,-0.000818123086872354));
#339=CARTESIAN_POINT('',(0.,0.025,0.00104166666666667));
#340=CARTESIAN_POINT('',(0.1,0.025,0.000818123086872332));
#341=CARTESIAN_POINT('',(0.,0.025,0.00208333333333334));
#342=CARTESIAN_POINT('',(0.1,0.0249598082522178,0.00163624490764574));
#343=CARTESIAN_POINT('',(0.,0.025,0.00416666666666666));
#344=CARTESIAN_POINT('',(0.1,0.0247994280813921,0.00326461210883227));
#345=CARTESIAN_POINT('',(0.,0.025,0.00520833333333334));
#346=CARTESIAN_POINT('',(0.1,0.0246792399065475,0.00407485496924075));
#347=CARTESIAN_POINT('',(0.,0.025,0.00729166666666667));
#348=CARTESIAN_POINT('',(0.1,0.024360024113614,0.00567966113156565));
#349=CARTESIAN_POINT('',(0.,0.025,0.00833333333333334));
#350=CARTESIAN_POINT('',(0.1,0.0241609969895324,0.00647422194993967));
#351=CARTESIAN_POINT('',(0.,0.025,0.0104166666666667));
#352=CARTESIAN_POINT('',(0.1,0.0236860197970781,0.00804001191278345));
#353=CARTESIAN_POINT('',(0.,0.025,0.0114583333333333));
#354=CARTESIAN_POINT('',(0.1,0.0234100704637636,0.00881123863409094));
#355=CARTESIAN_POINT('',(0.,0.025,0.0135416666666667));
#356=CARTESIAN_POINT('',(0.1,0.0227839061618007,0.0103229329841636));
#357=CARTESIAN_POINT('',(0.,0.025,0.0145833333333333));
#358=CARTESIAN_POINT('',(0.1,0.0224336921621825,0.0110633982734829));
#359=CARTESIAN_POINT('',(0.,0.025,0.0166666666666666));
#360=CARTESIAN_POINT('',(0.1,0.0216623710552353,0.012506438567817));
#361=CARTESIAN_POINT('',(0.,0.025,0.0177083333333334));
#362=CARTESIAN_POINT('',(0.1,0.021241265141576,0.0132090113396325));
#363=CARTESIAN_POINT('',(0.,0.025,0.0197916666666666));
#364=CARTESIAN_POINT('',(0.1,0.0203322154735513,0.0145695003113476));
#365=CARTESIAN_POINT('',(0.,0.025,0.0208333333333333));
#366=CARTESIAN_POINT('',(0.1,0.0198442731259994,0.0152274144058014));
#367=CARTESIAN_POINT('',(0.,0.025,0.0229166666666667));
#368=CARTESIAN_POINT('',(0.1,0.0188062495421374,0.0164922498023808));
#369=CARTESIAN_POINT('',(0.,0.025,0.0239583333333333));
#370=CARTESIAN_POINT('',(0.1,0.0182561703230679,0.0170991687362594));
#371=CARTESIAN_POINT('',(0.,0.025,0.025));
#372=CARTESIAN_POINT('',(0.1,0.0176776695296637,0.0176776695296637));
#373=CARTESIAN_POINT('',(0.1,0.,1.53080849893419E-18));
#374=CARTESIAN_POINT('',(0.1,0.0176776695296637,-0.0176776695296637));
#375=CARTESIAN_POINT('',(0.1,0.0176776695296637,0.0176776695296637));
#376=CARTESIAN_POINT('',(0.05,0.0213388347648319,-0.0213388347648319));
#377=CARTESIAN_POINT('',(0.05,0.0213388347648319,0.0213388347648319));
#378=CARTESIAN_POINT('',(0.,-0.025,-0.025));
#379=CARTESIAN_POINT('',(0.1,-0.0176776695296637,-0.0176776695296636));
#380=CARTESIAN_POINT('',(0.,-0.0239583333333333,-0.025));
#381=CARTESIAN_POINT('',(0.1,-0.0170991687362595,-0.0182561703230679));
#382=CARTESIAN_POINT('',(0.,-0.0229166666666667,-0.025));
#383=CARTESIAN_POINT('',(0.1,-0.0164922498023809,-0.0188062495421373));
#384=CARTESIAN_POINT('',(0.,-0.0208333333333333,-0.025));
#385=CARTESIAN_POINT('',(0.1,-0.0152274144058014,-0.0198442731259994));
#386=CARTESIAN_POINT('',(0.,-0.0197916666666666,-0.025));
#387=CARTESIAN_POINT('',(0.1,-0.0145695003113476,-0.0203322154735513));
#388=CARTESIAN_POINT('',(0.,-0.0177083333333334,-0.025));
#389=CARTESIAN_POINT('',(0.1,-0.0132090113396326,-0.021241265141576));
#390=CARTESIAN_POINT('',(0.,-0.0166666666666666,-0.025));
#391=CARTESIAN_POINT('',(0.1,-0.012506438567817,-0.0216623710552352));
#392=CARTESIAN_POINT('',(0.,-0.0145833333333333,-0.025));
#393=CARTESIAN_POINT('',(0.1,-0.011063398273483,-0.0224336921621825));
#394=CARTESIAN_POINT('',(0.,-0.0135416666666667,-0.025));
#395=CARTESIAN_POINT('',(0.1,-0.0103229329841636,-0.0227839061618007));
#396=CARTESIAN_POINT('',(0.,-0.0114583333333333,-0.025));
#397=CARTESIAN_POINT('',(0.1,-0.00881123863409095,-0.0234100704637636));
#398=CARTESIAN_POINT('',(0.,-0.0104166666666667,-0.025));
#399=CARTESIAN_POINT('',(0.1,-0.00804001191278349,-0.0236860197970781));
#400=CARTESIAN_POINT('',(0.,-0.00833333333333334,-0.025));
#401=CARTESIAN_POINT('',(0.1,-0.00647422194993971,-0.0241609969895323));
#402=CARTESIAN_POINT('',(0.,-0.00729166666666667,-0.025));
#403=CARTESIAN_POINT('',(0.1,-0.00567966113156569,-0.024360024113614));
#404=CARTESIAN_POINT('',(0.,-0.00520833333333334,-0.025));
#405=CARTESIAN_POINT('',(0.1,-0.00407485496924079,-0.0246792399065475));
#406=CARTESIAN_POINT('',(0.,-0.00416666666666666,-0.025));
#407=CARTESIAN_POINT('',(0.1,-0.00326461210883233,-0.0247994280813921));
#408=CARTESIAN_POINT('',(0.,-0.00208333333333334,-0.025));
#409=CARTESIAN_POINT('',(0.1,-0.00163624490764579,-0.0249598082522178));
#410=CARTESIAN_POINT('',(0.,-0.00104166666666667,-0.025));
#411=CARTESIAN_POINT('',(0.1,-0.000818123086872386,-0.025));
#412=CARTESIAN_POINT('',(0.,0.00104166666666667,-0.025));
#413=CARTESIAN_POINT('',(0.1,0.000818123086872297,-0.025));
#414=CARTESIAN_POINT('',(0.,0.00208333333333334,-0.025));
#415=CARTESIAN_POINT('',(0.1,0.0016362449076457,-0.0249598082522178));
#416=CARTESIAN_POINT('',(0.,0.00416666666666666,-0.025));
#417=CARTESIAN_POINT('',(0.1,0.00326461210883222,-0.0247994280813921));
#418=CARTESIAN_POINT('',(0.,0.00520833333333334,-0.025));
#419=CARTESIAN_POINT('',(0.1,0.00407485496924075,-0.0246792399065475));
#420=CARTESIAN_POINT('',(0.,0.00729166666666667,-0.025));
#421=CARTESIAN_POINT('',(0.1,0.00567966113156564,-0.024360024113614));
#422=CARTESIAN_POINT('',(0.,0.00833333333333334,-0.025));
#423=CARTESIAN_POINT('',(0.1,0.00647422194993965,-0.0241609969895324));
#424=CARTESIAN_POINT('',(0.,0.0104166666666667,-0.025));
#425=CARTESIAN_POINT('',(0.1,0.00804001191278342,-0.0236860197970781));
#426=CARTESIAN_POINT('',(0.,0.0114583333333333,-0.025));
#427=CARTESIAN_POINT('',(0.1,0.00881123863409092,-0.0234100704637636));
#428=CARTESIAN_POINT('',(0.,0.0135416666666667,-0.025));
#429=CARTESIAN_POINT('',(0.1,0.0103229329841635,-0.0227839061618007));
#430=CARTESIAN_POINT('',(0.,0.0145833333333333,-0.025));
#431=CARTESIAN_POINT('',(0.1,0.0110633982734829,-0.0224336921621825));
#432=CARTESIAN_POINT('',(0.,0.0166666666666666,-0.025));
#433=CARTESIAN_POINT('',(0.1,0.012506438567817,-0.0216623710552353));
#434=CARTESIAN_POINT('',(0.,0.0177083333333334,-0.025));
#435=CARTESIAN_POINT('',(0.1,0.0132090113396325,-0.021241265141576));
#436=CARTESIAN_POINT('',(0.,0.0197916666666666,-0.025));
#437=CARTESIAN_POINT('',(0.1,0.0145695003113475,-0.0203322154735513));
#438=CARTESIAN_POINT('',(0.,0.0208333333333333,-0.025));
#439=CARTESIAN_POINT('',(0.1,0.0152274144058014,-0.0198442731259995));
#440=CARTESIAN_POINT('',(0.,0.0229166666666667,-0.025));
#441=CARTESIAN_POINT('',(0.1,0.0164922498023808,-0.0188062495421374));
#442=CARTESIAN_POINT('',(0.,0.0239583333333333,-0.025));
#443=CARTESIAN_POINT('',(0.1,0.0170991687362594,-0.0182561703230679));
#444=CARTESIAN_POINT('',(0.,0.025,-0.025));
#445=CARTESIAN_POINT('',(0.1,0.0176776695296637,-0.0176776695296637));
#446=CARTESIAN_POINT('',(0.1,0.,1.53080849893419E-18));
#447=CARTESIAN_POINT('',(0.1,-0.0176776695296637,-0.0176776695296637));
#448=CARTESIAN_POINT('',(0.05,-0.0213388347648319,-0.0213388347648319));
#449=CARTESIAN_POINT('',(0.,-0.025,0.025));
#450=CARTESIAN_POINT('',(0.1,-0.0176776695296637,0.0176776695296637));
#451=CARTESIAN_POINT('',(0.,-0.025,0.0239583333333333));
#452=CARTESIAN_POINT('',(0.1,-0.0182561703230679,0.0170991687362594));
#453=CARTESIAN_POINT('',(0.,-0.025,0.0229166666666667));
#454=CARTESIAN_POINT('',(0.1,-0.0188062495421374,0.0164922498023808));
#455=CARTESIAN_POINT('',(0.,-0.025,0.0208333333333333));
#456=CARTESIAN_POINT('',(0.1,-0.0198442731259994,0.0152274144058014));
#457=CARTESIAN_POINT('',(0.,-0.025,0.0197916666666666));
#458=CARTESIAN_POINT('',(0.1,-0.0203322154735513,0.0145695003113476));
#459=CARTESIAN_POINT('',(0.,-0.025,0.0177083333333334));
#460=CARTESIAN_POINT('',(0.1,-0.021241265141576,0.0132090113396325));
#461=CARTESIAN_POINT('',(0.,-0.025,0.0166666666666666));
#462=CARTESIAN_POINT('',(0.1,-0.0216623710552353,0.012506438567817));
#463=CARTESIAN_POINT('',(0.,-0.025,0.0145833333333333));
#464=CARTESIAN_POINT('',(0.1,-0.0224336921621825,0.0110633982734829));
#465=CARTESIAN_POINT('',(0.,-0.025,0.0135416666666667));
#466=CARTESIAN_POINT('',(0.1,-0.0227839061618007,0.0103229329841636));
#467=CARTESIAN_POINT('',(0.,-0.025,0.0114583333333333));
#468=CARTESIAN_POINT('',(0.1,-0.0234100704637636,0.00881123863409095));
#469=CARTESIAN_POINT('',(0.,-0.025,0.0104166666666667));
#470=CARTESIAN_POINT('',(0.1,-0.0236860197970781,0.00804001191278348));
#471=CARTESIAN_POINT('',(0.,-0.025,0.00833333333333334));
#472=CARTESIAN_POINT('',(0.1,-0.0241609969895324,0.00647422194993969));
#473=CARTESIAN_POINT('',(0.,-0.025,0.00729166666666667));
#474=CARTESIAN_POINT('',(0.1,-0.024360024113614,0.00567966113156569));
#475=CARTESIAN_POINT('',(0.,-0.025,0.00520833333333334));
#476=CARTESIAN_POINT('',(0.1,-0.0246792399065475,0.00407485496924079));
#477=CARTESIAN_POINT('',(0.,-0.025,0.00416666666666666));
#478=CARTESIAN_POINT('',(0.1,-0.0247994280813921,0.00326461210883228));
#479=CARTESIAN_POINT('',(0.,-0.025,0.00208333333333334));
#480=CARTESIAN_POINT('',(0.1,-0.0249598082522178,0.00163624490764575));
#481=CARTESIAN_POINT('',(0.,-0.025,0.00104166666666667));
#482=CARTESIAN_POINT('',(0.1,-0.025,0.000818123086872347));
#483=CARTESIAN_POINT('',(0.,-0.025,-0.00104166666666667));
#484=CARTESIAN_POINT('',(0.1,-0.025,-0.000818123086872335));
#485=CARTESIAN_POINT('',(0.,-0.025,-0.00208333333333334));
#486=CARTESIAN_POINT('',(0.1,-0.0249598082522178,-0.00163624490764572));
#487=CARTESIAN_POINT('',(0.,-0.025,-0.00416666666666666));
#488=CARTESIAN_POINT('',(0.1,-0.0247994280813921,-0.00326461210883224));
#489=CARTESIAN_POINT('',(0.,-0.025,-0.00520833333333334));
#490=CARTESIAN_POINT('',(0.1,-0.0246792399065476,-0.00407485496924074));
#491=CARTESIAN_POINT('',(0.,-0.025,-0.00729166666666667));
#492=CARTESIAN_POINT('',(0.1,-0.024360024113614,-0.00567966113156563));
#493=CARTESIAN_POINT('',(0.,-0.025,-0.00833333333333334));
#494=CARTESIAN_POINT('',(0.1,-0.0241609969895324,-0.00647422194993964));
#495=CARTESIAN_POINT('',(0.,-0.025,-0.0104166666666667));
#496=CARTESIAN_POINT('',(0.1,-0.0236860197970781,-0.00804001191278342));
#497=CARTESIAN_POINT('',(0.,-0.025,-0.0114583333333333));
#498=CARTESIAN_POINT('',(0.1,-0.0234100704637636,-0.00881123863409092));
#499=CARTESIAN_POINT('',(0.,-0.025,-0.0135416666666667));
#500=CARTESIAN_POINT('',(0.1,-0.0227839061618007,-0.0103229329841635));
#501=CARTESIAN_POINT('',(0.,-0.025,-0.0145833333333333));
#502=CARTESIAN_POINT('',(0.1,-0.0224336921621825,-0.0110633982734829));
#503=CARTESIAN_POINT('',(0.,-0.025,-0.0166666666666666));
#504=CARTESIAN_POINT('',(0.1,-0.0216623710552353,-0.012506438567817));
#505=CARTESIAN_POINT('',(0.,-0.025,-0.0177083333333334));
#506=CARTESIAN_POINT('',(0.1,-0.021241265141576,-0.0132090113396325));
#507=CARTESIAN_POINT('',(0.,-0.025,-0.0197916666666666));
#508=CARTESIAN_POINT('',(0.1,-0.0203322154735513,-0.0145695003113475));
#509=CARTESIAN_POINT('',(0.,-0.025,-0.0208333333333333));
#510=CARTESIAN_POINT('',(0.1,-0.0198442731259994,-0.0152274144058014));
#511=CARTESIAN_POINT('',(0.,-0.025,-0.0229166666666667));
#512=CARTESIAN_POINT('',(0.1,-0.0188062495421374,-0.0164922498023808));
#513=CARTESIAN_POINT('',(0.,-0.025,-0.0239583333333333));
#514=CARTESIAN_POINT('',(0.1,-0.018256170323068,-0.0170991687362594));
#515=CARTESIAN_POINT('',(0.,-0.025,-0.025));
#516=CARTESIAN_POINT('',(0.1,-0.0176776695296637,-0.0176776695296636));
#517=CARTESIAN_POINT('',(0.1,0.,1.53080849893419E-18));
#518=CARTESIAN_POINT('',(0.,0.025,0.025));
#519=CARTESIAN_POINT('',(0.1,0.0176776695296637,0.0176776695296637));
#520=CARTESIAN_POINT('',(0.,0.0239583333333333,0.025));
#521=CARTESIAN_POINT('',(0.1,0.0170991687362595,0.0182561703230679));
#522=CARTESIAN_POINT('',(0.,0.0229166666666667,0.025));
#523=CARTESIAN_POINT('',(0.1,0.0164922498023808,0.0188062495421374));
#524=CARTESIAN_POINT('',(0.,0.0208333333333333,0.025));
#525=CARTESIAN_POINT('',(0.1,0.0152274144058014,0.0198442731259994));
#526=CARTESIAN_POINT('',(0.,0.0197916666666666,0.025));
#527=CARTESIAN_POINT('',(0.1,0.0145695003113476,0.0203322154735513));
#528=CARTESIAN_POINT('',(0.,0.0177083333333334,0.025));
#529=CARTESIAN_POINT('',(0.1,0.0132090113396326,0.021241265141576));
#530=CARTESIAN_POINT('',(0.,0.0166666666666666,0.025));
#531=CARTESIAN_POINT('',(0.1,0.012506438567817,0.0216623710552353));
#532=CARTESIAN_POINT('',(0.,0.0145833333333333,0.025));
#533=CARTESIAN_POINT('',(0.1,0.0110633982734829,0.0224336921621825));
#534=CARTESIAN_POINT('',(0.,0.0135416666666667,0.025));
#535=CARTESIAN_POINT('',(0.1,0.0103229329841636,0.0227839061618007));
#536=CARTESIAN_POINT('',(0.,0.0114583333333333,0.025));
#537=CARTESIAN_POINT('',(0.1,0.00881123863409095,0.0234100704637636));
#538=CARTESIAN_POINT('',(0.,0.0104166666666667,0.025));
#539=CARTESIAN_POINT('',(0.1,0.00804001191278345,0.0236860197970781));
#540=CARTESIAN_POINT('',(0.,0.00833333333333334,0.025));
#541=CARTESIAN_POINT('',(0.1,0.00647422194993967,0.0241609969895324));
#542=CARTESIAN_POINT('',(0.,0.00729166666666667,0.025));
#543=CARTESIAN_POINT('',(0.1,0.00567966113156566,0.024360024113614));
#544=CARTESIAN_POINT('',(0.,0.00520833333333334,0.025));
#545=CARTESIAN_POINT('',(0.1,0.00407485496924077,0.0246792399065475));
#546=CARTESIAN_POINT('',(0.,0.00416666666666667,0.025));
#547=CARTESIAN_POINT('',(0.1,0.00326461210883229,0.0247994280813921));
#548=CARTESIAN_POINT('',(0.,0.00303933333333334,0.025));
#549=CARTESIAN_POINT('',(0.1,0.00238347004892623,0.0248862129994293));
#550=CARTESIAN_POINT('',(0.,0.00295366666666667,0.025));
#551=CARTESIAN_POINT('',(0.1,0.00231648495378576,0.0248925373065929));
#552=CARTESIAN_POINT('',(0.,0.002868,0.025));
#553=CARTESIAN_POINT('',(0.1,0.00224947541264385,0.0248985909807166));
#554=CARTESIAN_POINT('',(0.1,0.00299999999999991,0.0248193443244811));
#555=CARTESIAN_POINT('',(0.0666667368025382,0.00299999999999991,0.0249129640123614));
#556=CARTESIAN_POINT('',(0.0333333722586516,0.003,0.0249630162810305));
#557=CARTESIAN_POINT('',(0.,0.003,0.025));
#558=CARTESIAN_POINT('',(0.1,0.00299999999999983,0.0248193443244811));
#559=CARTESIAN_POINT('',(0.1,0.,1.53080849893419E-18));
#560=CARTESIAN_POINT('',(0.1,0.,0.));
#561=CARTESIAN_POINT('',(0.1,0.003,8.67361737988406E-19));
#562=CARTESIAN_POINT('',(0.1,0.003,0.019));
#563=CARTESIAN_POINT('',(0.1,0.,0.019));
#564=CARTESIAN_POINT('',(0.1,-0.003,0.019));
#565=CARTESIAN_POINT('',(0.1,-0.003,-8.67361737988403E-19));
#566=CARTESIAN_POINT('',(0.122484487139159,0.003,0.022));
#567=CARTESIAN_POINT('',(0.122484487139159,0.003,0.019));
#568=CARTESIAN_POINT('',(0.122484487139159,-0.003,0.022));
#569=CARTESIAN_POINT('',(0.122484487139159,-0.003,0.019));
#570=CARTESIAN_POINT('',(0.122484487139159,0.,0.019));
#571=MECHANICAL_DESIGN_GEOMETRIC_PRESENTATION_REPRESENTATION('',(#182),
#572);
#572=(
GEOMETRIC_REPRESENTATION_CONTEXT(3)
GLOBAL_UNCERTAINTY_ASSIGNED_CONTEXT((#573))
GLOBAL_UNIT_ASSIGNED_CONTEXT((#576,#575,#574))
REPRESENTATION_CONTEXT('RectangleCircleLoft_50mm_50mm_100mm',
'TOP_LEVEL_ASSEMBLY_PART')
);
#573=UNCERTAINTY_MEASURE_WITH_UNIT(LENGTH_MEASURE(2.E-5),#576,
'DISTANCE_ACCURACY_VALUE','Maximum Tolerance applied to model');
#574=(
NAMED_UNIT(*)
SI_UNIT($,.STERADIAN.)
SOLID_ANGLE_UNIT()
);
#575=(
NAMED_UNIT(*)
PLANE_ANGLE_UNIT()
SI_UNIT($,.RADIAN.)
);
#576=(
LENGTH_UNIT()
NAMED_UNIT(*)
SI_UNIT($,.METRE.)
);
#577=PRODUCT_DEFINITION_SHAPE('','',#578);
#578=PRODUCT_DEFINITION('','',#580,#579);
#579=PRODUCT_DEFINITION_CONTEXT('',#586,'design');
#580=PRODUCT_DEFINITION_FORMATION_WITH_SPECIFIED_SOURCE('','',#582,
 .NOT_KNOWN.);
#581=PRODUCT_RELATED_PRODUCT_CATEGORY('','',(#582));
#582=PRODUCT('RectangleCircleLoft_50mm_50mm_100mm',
'RectangleCircleLoft_50mm_50mm_100mm',
'RectangleCircleLoft_50mm_50mm_100mm',(#584));
#583=PRODUCT_CATEGORY('','');
#584=PRODUCT_CONTEXT('',#586,'mechanical');
#585=APPLICATION_PROTOCOL_DEFINITION('international standard',
'ap242_managed_model_based_3d_engineering',2020,#586);
#586=APPLICATION_CONTEXT('managed model based 3d engineering');
ENDSEC;
END-ISO-10303-21;
