ISO-10303-21;
HEADER;
/* Generated by software containing ST-Developer
 * from STEP Tools, Inc. (www.steptools.com) 
 */

FILE_DESCRIPTION(
/* description */ (''),
/* implementation_level */ '2;1');

FILE_NAME(
/* name */ 'Tapered_Rectangle50Circle40_100mm.step',
/* time_stamp */ '2026-02-06T13:54:43Z',
/* author */ (''),
/* organization */ (''),
/* preprocessor_version */ 'ST-DEVELOPER v20.1',
/* originating_system */ 'Autodesk Translation Framework v14.24.0.0',
/* authorisation */ '');

FILE_SCHEMA (('AUTOMOTIVE_DESIGN { 1 0 10303 214 3 1 1 }'));
ENDSEC;

DATA;
#10=MECHANICAL_DESIGN_GEOMETRIC_PRESENTATION_REPRESENTATION('',(#13),#283);
#11=SHAPE_REPRESENTATION_RELATIONSHIP('SRR','None',#290,#12);
#12=ADVANCED_BREP_SHAPE_REPRESENTATION('',(#14),#282);
#13=STYLED_ITEM('',(#299),#14);
#14=MANIFOLD_SOLID_BREP('Body1',#103);
#15=B_SPLINE_SURFACE_WITH_KNOTS('',3,3,((#164,#165,#166,#167),(#168,#169,
#170,#171),(#172,#173,#174,#175),(#176,#177,#178,#179),(#180,#181,#182,
#183),(#184,#185,#186,#187),(#188,#189,#190,#191)),.UNSPECIFIED.,.F.,.F.,
 .F.,(4,1,1,1,4),(4,4),(0.,0.285714285714286,0.571428571428571,0.857142857142857,
1.),(0.,1.),.UNSPECIFIED.);
#16=B_SPLINE_SURFACE_WITH_KNOTS('',3,3,((#194,#195,#196,#197),(#198,#199,
#200,#201),(#202,#203,#204,#205),(#206,#207,#208,#209),(#210,#211,#212,
#213),(#214,#215,#216,#217),(#218,#219,#220,#221)),.UNSPECIFIED.,.F.,.F.,
 .F.,(4,1,1,1,4),(4,4),(0.,0.285714285714286,0.571428571428571,0.857142857142857,
1.),(0.,1.),.UNSPECIFIED.);
#17=B_SPLINE_SURFACE_WITH_KNOTS('',3,3,((#223,#224,#225,#226),(#227,#228,
#229,#230),(#231,#232,#233,#234),(#235,#236,#237,#238),(#239,#240,#241,
#242),(#243,#244,#245,#246),(#247,#248,#249,#250)),.UNSPECIFIED.,.F.,.F.,
 .F.,(4,1,1,1,4),(4,4),(0.,0.285714285714286,0.571428571428571,0.857142857142857,
1.),(0.,1.),.UNSPECIFIED.);
#18=B_SPLINE_SURFACE_WITH_KNOTS('',3,3,((#252,#253,#254,#255),(#256,#257,
#258,#259),(#260,#261,#262,#263),(#264,#265,#266,#267),(#268,#269,#270,
#271),(#272,#273,#274,#275),(#276,#277,#278,#279)),.UNSPECIFIED.,.F.,.F.,
 .F.,(4,1,1,1,4),(4,4),(0.,0.285714285714286,0.571428571428571,0.857142857142857,
1.),(0.,1.),.UNSPECIFIED.);
#19=LINE('',#158,#27);
#20=LINE('',#160,#28);
#21=LINE('',#162,#29);
#22=LINE('',#163,#30);
#23=LINE('',#192,#31);
#24=LINE('',#193,#32);
#25=LINE('',#222,#33);
#26=LINE('',#251,#34);
#27=VECTOR('',#137,10.);
#28=VECTOR('',#138,10.);
#29=VECTOR('',#139,10.);
#30=VECTOR('',#140,10.);
#31=VECTOR('',#141,101.172063523618);
#32=VECTOR('',#142,101.172063523618);
#33=VECTOR('',#143,101.172063523618);
#34=VECTOR('',#144,101.172063523618);
#35=FACE_OUTER_BOUND('',#41,.T.);
#36=FACE_OUTER_BOUND('',#42,.T.);
#37=FACE_OUTER_BOUND('',#43,.T.);
#38=FACE_OUTER_BOUND('',#44,.T.);
#39=FACE_OUTER_BOUND('',#45,.T.);
#40=FACE_OUTER_BOUND('',#46,.T.);
#41=EDGE_LOOP('',(#71,#72,#73,#74));
#42=EDGE_LOOP('',(#75,#76,#77,#78));
#43=EDGE_LOOP('',(#79,#80,#81,#82));
#44=EDGE_LOOP('',(#83,#84,#85,#86));
#45=EDGE_LOOP('',(#87,#88,#89,#90));
#46=EDGE_LOOP('',(#91,#92,#93,#94));
#47=CIRCLE('',#118,20.);
#48=CIRCLE('',#119,20.);
#49=CIRCLE('',#120,20.);
#50=CIRCLE('',#121,20.);
#51=VERTEX_POINT('',#147);
#52=VERTEX_POINT('',#148);
#53=VERTEX_POINT('',#150);
#54=VERTEX_POINT('',#152);
#55=VERTEX_POINT('',#156);
#56=VERTEX_POINT('',#157);
#57=VERTEX_POINT('',#159);
#58=VERTEX_POINT('',#161);
#59=EDGE_CURVE('',#51,#52,#47,.T.);
#60=EDGE_CURVE('',#52,#53,#48,.T.);
#61=EDGE_CURVE('',#53,#54,#49,.T.);
#62=EDGE_CURVE('',#54,#51,#50,.T.);
#63=EDGE_CURVE('',#55,#56,#19,.T.);
#64=EDGE_CURVE('',#57,#55,#20,.T.);
#65=EDGE_CURVE('',#58,#57,#21,.T.);
#66=EDGE_CURVE('',#56,#58,#22,.T.);
#67=EDGE_CURVE('',#56,#52,#23,.T.);
#68=EDGE_CURVE('',#55,#51,#24,.T.);
#69=EDGE_CURVE('',#58,#53,#25,.T.);
#70=EDGE_CURVE('',#57,#54,#26,.T.);
#71=ORIENTED_EDGE('',*,*,#59,.T.);
#72=ORIENTED_EDGE('',*,*,#60,.T.);
#73=ORIENTED_EDGE('',*,*,#61,.T.);
#74=ORIENTED_EDGE('',*,*,#62,.T.);
#75=ORIENTED_EDGE('',*,*,#63,.F.);
#76=ORIENTED_EDGE('',*,*,#64,.F.);
#77=ORIENTED_EDGE('',*,*,#65,.F.);
#78=ORIENTED_EDGE('',*,*,#66,.F.);
#79=ORIENTED_EDGE('',*,*,#63,.T.);
#80=ORIENTED_EDGE('',*,*,#67,.T.);
#81=ORIENTED_EDGE('',*,*,#59,.F.);
#82=ORIENTED_EDGE('',*,*,#68,.F.);
#83=ORIENTED_EDGE('',*,*,#66,.T.);
#84=ORIENTED_EDGE('',*,*,#69,.T.);
#85=ORIENTED_EDGE('',*,*,#60,.F.);
#86=ORIENTED_EDGE('',*,*,#67,.F.);
#87=ORIENTED_EDGE('',*,*,#65,.T.);
#88=ORIENTED_EDGE('',*,*,#70,.T.);
#89=ORIENTED_EDGE('',*,*,#61,.F.);
#90=ORIENTED_EDGE('',*,*,#69,.F.);
#91=ORIENTED_EDGE('',*,*,#64,.T.);
#92=ORIENTED_EDGE('',*,*,#68,.T.);
#93=ORIENTED_EDGE('',*,*,#62,.F.);
#94=ORIENTED_EDGE('',*,*,#70,.F.);
#95=PLANE('',#117);
#96=PLANE('',#122);
#97=ADVANCED_FACE('',(#35),#95,.T.);
#98=ADVANCED_FACE('',(#36),#96,.F.);
#99=ADVANCED_FACE('',(#37),#15,.T.);
#100=ADVANCED_FACE('',(#38),#16,.T.);
#101=ADVANCED_FACE('',(#39),#17,.T.);
#102=ADVANCED_FACE('',(#40),#18,.T.);
#103=CLOSED_SHELL('',(#97,#98,#99,#100,#101,#102));
#104=DERIVED_UNIT_ELEMENT(#106,1.);
#105=DERIVED_UNIT_ELEMENT(#285,-3.);
#106=(
MASS_UNIT()
NAMED_UNIT(*)
SI_UNIT(.KILO.,.GRAM.)
);
#107=DERIVED_UNIT((#104,#105));
#108=MEASURE_REPRESENTATION_ITEM('density measure',
POSITIVE_RATIO_MEASURE(1021.),#107);
#109=PROPERTY_DEFINITION_REPRESENTATION(#114,#111);
#110=PROPERTY_DEFINITION_REPRESENTATION(#115,#112);
#111=REPRESENTATION('material name',(#113),#282);
#112=REPRESENTATION('density',(#108),#282);
#113=DESCRIPTIVE_REPRESENTATION_ITEM('Polystyrene','Polystyrene');
#114=PROPERTY_DEFINITION('material property','material name',#292);
#115=PROPERTY_DEFINITION('material property','density of part',#292);
#116=AXIS2_PLACEMENT_3D('',#145,#123,#124);
#117=AXIS2_PLACEMENT_3D('',#146,#125,#126);
#118=AXIS2_PLACEMENT_3D('',#149,#127,#128);
#119=AXIS2_PLACEMENT_3D('',#151,#129,#130);
#120=AXIS2_PLACEMENT_3D('',#153,#131,#132);
#121=AXIS2_PLACEMENT_3D('',#154,#133,#134);
#122=AXIS2_PLACEMENT_3D('',#155,#135,#136);
#123=DIRECTION('axis',(0.,0.,1.));
#124=DIRECTION('refdir',(1.,0.,0.));
#125=DIRECTION('center_axis',(1.,0.,0.));
#126=DIRECTION('ref_axis',(0.,0.,-1.));
#127=DIRECTION('center_axis',(1.,0.,0.));
#128=DIRECTION('ref_axis',(0.,1.,0.));
#129=DIRECTION('center_axis',(1.,0.,0.));
#130=DIRECTION('ref_axis',(0.,1.,0.));
#131=DIRECTION('center_axis',(1.,0.,0.));
#132=DIRECTION('ref_axis',(0.,1.,0.));
#133=DIRECTION('center_axis',(1.,0.,0.));
#134=DIRECTION('ref_axis',(0.,1.,0.));
#135=DIRECTION('center_axis',(1.,0.,0.));
#136=DIRECTION('ref_axis',(0.,0.,-1.));
#137=DIRECTION('',(0.,6.12323399573676E-17,-1.));
#138=DIRECTION('',(0.,-1.,0.));
#139=DIRECTION('',(0.,0.,1.));
#140=DIRECTION('',(0.,1.,0.));
#141=DIRECTION('',(0.988415146604735,0.107320776092843,0.107320776092843));
#142=DIRECTION('',(0.988415146604735,0.107320776092843,-0.107320776092843));
#143=DIRECTION('',(0.988415146604735,-0.107320776092843,0.107320776092843));
#144=DIRECTION('',(0.988415146604735,-0.107320776092843,-0.107320776092843));
#145=CARTESIAN_POINT('',(0.,0.,0.));
#146=CARTESIAN_POINT('Origin',(100.,25.,25.));
#147=CARTESIAN_POINT('',(100.,10.8578643762691,39.1421356237309));
#148=CARTESIAN_POINT('',(100.,10.8578643762691,10.8578643762691));
#149=CARTESIAN_POINT('Origin',(100.,25.,25.));
#150=CARTESIAN_POINT('',(100.,39.1421356237309,10.8578643762691));
#151=CARTESIAN_POINT('Origin',(100.,25.,25.));
#152=CARTESIAN_POINT('',(100.,39.1421356237309,39.1421356237309));
#153=CARTESIAN_POINT('Origin',(100.,25.,25.));
#154=CARTESIAN_POINT('Origin',(100.,25.,25.));
#155=CARTESIAN_POINT('Origin',(0.,25.,25.));
#156=CARTESIAN_POINT('',(0.,0.,50.));
#157=CARTESIAN_POINT('',(0.,0.,0.));
#158=CARTESIAN_POINT('',(0.,-3.06161699786838E-15,50.));
#159=CARTESIAN_POINT('',(0.,50.,50.));
#160=CARTESIAN_POINT('',(0.,50.,50.));
#161=CARTESIAN_POINT('',(0.,50.,0.));
#162=CARTESIAN_POINT('',(0.,50.,0.));
#163=CARTESIAN_POINT('',(0.,0.,0.));
#164=CARTESIAN_POINT('Ctrl Pts',(0.,-3.06161699786838E-15,50.));
#165=CARTESIAN_POINT('Ctrl Pts',(33.3333333333333,3.61928812542302,46.380711874577));
#166=CARTESIAN_POINT('Ctrl Pts',(66.6666666666667,7.23857625084604,42.761423749154));
#167=CARTESIAN_POINT('Ctrl Pts',(100.,10.8578643762691,39.1421356237309));
#168=CARTESIAN_POINT('Ctrl Pts',(0.,-2.77003442664282E-15,45.2380952380952));
#169=CARTESIAN_POINT('Ctrl Pts',(33.3333333333333,2.91355297400467,42.5016951355648));
#170=CARTESIAN_POINT('Ctrl Pts',(66.6666666666667,5.82865286028422,39.7628771842812));
#171=CARTESIAN_POINT('Ctrl Pts',(100.,8.74220583428889,37.0264770817508));
#172=CARTESIAN_POINT('Ctrl Pts',(0.,-2.1868692841917E-15,35.7142857142857));
#173=CARTESIAN_POINT('Ctrl Pts',(33.3333333333333,1.82580473148526,34.4197876153669));
#174=CARTESIAN_POINT('Ctrl Pts',(66.6666666666667,3.65271005919486,33.1252776817535));
#175=CARTESIAN_POINT('Ctrl Pts',(100.,5.47851479068012,31.8307795828347));
#176=CARTESIAN_POINT('Ctrl Pts',(0.,-1.31212157051502E-15,21.4285714285714));
#177=CARTESIAN_POINT('Ctrl Pts',(33.3333333333333,1.48195672920579,21.8471905835403));
#178=CARTESIAN_POINT('Ctrl Pts',(66.6666666666666,2.96372838665745,22.2645801253505));
#179=CARTESIAN_POINT('Ctrl Pts',(99.9999999999999,4.44568511586324,22.6831992803194));
#180=CARTESIAN_POINT('Ctrl Pts',(0.,-5.83165142451121E-16,9.52380952380953));
#181=CARTESIAN_POINT('Ctrl Pts',(33.3333333333333,2.32647752070299,11.4970301726499));
#182=CARTESIAN_POINT('Ctrl Pts',(66.6666666666667,4.65379566216089,13.4710272772116));
#183=CARTESIAN_POINT('Ctrl Pts',(100.,6.98027318286388,15.444247926052));
#184=CARTESIAN_POINT('Ctrl Pts',(0.,-1.4579128561278E-16,2.38095238095238));
#185=CARTESIAN_POINT('Ctrl Pts',(33.3333333333333,3.26717978921917,5.5595938876622));
#186=CARTESIAN_POINT('Ctrl Pts',(66.6666666666667,6.5328553160598,8.73705214054935));
#187=CARTESIAN_POINT('Ctrl Pts',(100.,9.80003510527897,11.9156936472592));
#188=CARTESIAN_POINT('Ctrl Pts',(0.,0.,0.));
#189=CARTESIAN_POINT('Ctrl Pts',(33.3333333333333,3.61928812542302,3.61928812542303));
#190=CARTESIAN_POINT('Ctrl Pts',(66.6666666666667,7.23857625084603,7.23857625084605));
#191=CARTESIAN_POINT('Ctrl Pts',(100.,10.857864376269,10.8578643762691));
#192=CARTESIAN_POINT('',(0.,0.,0.));
#193=CARTESIAN_POINT('',(0.,0.,50.));
#194=CARTESIAN_POINT('Ctrl Pts',(0.,0.,0.));
#195=CARTESIAN_POINT('Ctrl Pts',(33.3333333333333,3.61928812542302,3.61928812542302));
#196=CARTESIAN_POINT('Ctrl Pts',(66.6666666666667,7.23857625084604,7.23857625084605));
#197=CARTESIAN_POINT('Ctrl Pts',(100.,10.8578643762691,10.8578643762691));
#198=CARTESIAN_POINT('Ctrl Pts',(0.,4.76190476190476,0.));
#199=CARTESIAN_POINT('Ctrl Pts',(33.3333333333333,7.4983048644352,2.91355297400467));
#200=CARTESIAN_POINT('Ctrl Pts',(66.6666666666667,10.2371228157188,5.82865286028422));
#201=CARTESIAN_POINT('Ctrl Pts',(100.,12.9735229182492,8.7422058342889));
#202=CARTESIAN_POINT('Ctrl Pts',(0.,14.2857142857143,0.));
#203=CARTESIAN_POINT('Ctrl Pts',(33.3333333333333,15.5802123846331,1.82580473148526));
#204=CARTESIAN_POINT('Ctrl Pts',(66.6666666666667,16.8747223182466,3.65271005919486));
#205=CARTESIAN_POINT('Ctrl Pts',(100.,18.1692204171654,5.47851479068012));
#206=CARTESIAN_POINT('Ctrl Pts',(0.,28.5714285714286,0.));
#207=CARTESIAN_POINT('Ctrl Pts',(33.3333333333333,28.1528094164597,1.48195672920578));
#208=CARTESIAN_POINT('Ctrl Pts',(66.6666666666666,27.7354198746495,2.96372838665746));
#209=CARTESIAN_POINT('Ctrl Pts',(100.,27.3168007196806,4.44568511586324));
#210=CARTESIAN_POINT('Ctrl Pts',(0.,40.4761904761905,0.));
#211=CARTESIAN_POINT('Ctrl Pts',(33.3333333333333,38.5029698273501,2.326477520703));
#212=CARTESIAN_POINT('Ctrl Pts',(66.6666666666667,36.5289727227884,4.65379566216088));
#213=CARTESIAN_POINT('Ctrl Pts',(100.,34.555752073948,6.98027318286388));
#214=CARTESIAN_POINT('Ctrl Pts',(0.,47.6190476190476,0.));
#215=CARTESIAN_POINT('Ctrl Pts',(33.3333333333333,44.4404061123378,3.26717978921917));
#216=CARTESIAN_POINT('Ctrl Pts',(66.6666666666667,41.2629478594507,6.5328553160598));
#217=CARTESIAN_POINT('Ctrl Pts',(100.,38.0843063527408,9.80003510527897));
#218=CARTESIAN_POINT('Ctrl Pts',(0.,50.,0.));
#219=CARTESIAN_POINT('Ctrl Pts',(33.3333333333333,46.380711874577,3.61928812542302));
#220=CARTESIAN_POINT('Ctrl Pts',(66.6666666666667,42.761423749154,7.23857625084604));
#221=CARTESIAN_POINT('Ctrl Pts',(100.,39.1421356237309,10.8578643762691));
#222=CARTESIAN_POINT('',(0.,50.,0.));
#223=CARTESIAN_POINT('Ctrl Pts',(0.,50.,0.));
#224=CARTESIAN_POINT('Ctrl Pts',(33.3333333333333,46.380711874577,3.61928812542302));
#225=CARTESIAN_POINT('Ctrl Pts',(66.6666666666667,42.761423749154,7.23857625084604));
#226=CARTESIAN_POINT('Ctrl Pts',(100.,39.1421356237309,10.8578643762691));
#227=CARTESIAN_POINT('Ctrl Pts',(0.,50.,4.76190476190476));
#228=CARTESIAN_POINT('Ctrl Pts',(33.3333333333333,47.0864470259953,7.4983048644352));
#229=CARTESIAN_POINT('Ctrl Pts',(66.6666666666667,44.1713471397158,10.2371228157188));
#230=CARTESIAN_POINT('Ctrl Pts',(100.,41.2577941657111,12.9735229182492));
#231=CARTESIAN_POINT('Ctrl Pts',(0.,50.,14.2857142857143));
#232=CARTESIAN_POINT('Ctrl Pts',(33.3333333333333,48.1741952685148,15.5802123846331));
#233=CARTESIAN_POINT('Ctrl Pts',(66.6666666666667,46.3472389161453,16.8747783907232));
#234=CARTESIAN_POINT('Ctrl Pts',(100.,44.52143418466,18.169276489642));
#235=CARTESIAN_POINT('Ctrl Pts',(0.,50.,28.5714285714286));
#236=CARTESIAN_POINT('Ctrl Pts',(33.3333333333333,48.5180432707942,28.1528094164597));
#237=CARTESIAN_POINT('Ctrl Pts',(66.6666666666667,47.0362510547828,27.7354486246293));
#238=CARTESIAN_POINT('Ctrl Pts',(100.,45.554294325577,27.3168294696604));
#239=CARTESIAN_POINT('Ctrl Pts',(0.,50.,40.4761904761905));
#240=CARTESIAN_POINT('Ctrl Pts',(33.3333333333333,47.673522479297,38.5029698273501));
#241=CARTESIAN_POINT('Ctrl Pts',(66.6666666666667,45.3461918671991,36.5289929627024));
#242=CARTESIAN_POINT('Ctrl Pts',(100.,43.0197143464961,34.555772313862));
#243=CARTESIAN_POINT('Ctrl Pts',(0.,50.,47.6190476190476));
#244=CARTESIAN_POINT('Ctrl Pts',(33.3333333333333,46.7328202107808,44.4404061123378));
#245=CARTESIAN_POINT('Ctrl Pts',(66.6666666666667,43.4671446839402,41.2629478594507));
#246=CARTESIAN_POINT('Ctrl Pts',(100.,40.199964894721,38.0843063527408));
#247=CARTESIAN_POINT('Ctrl Pts',(0.,50.,50.));
#248=CARTESIAN_POINT('Ctrl Pts',(33.3333333333333,46.380711874577,46.380711874577));
#249=CARTESIAN_POINT('Ctrl Pts',(66.6666666666667,42.761423749154,42.761423749154));
#250=CARTESIAN_POINT('Ctrl Pts',(100.,39.1421356237309,39.1421356237309));
#251=CARTESIAN_POINT('',(0.,50.,50.));
#252=CARTESIAN_POINT('Ctrl Pts',(0.,50.,50.));
#253=CARTESIAN_POINT('Ctrl Pts',(33.3333333333333,46.380711874577,46.380711874577));
#254=CARTESIAN_POINT('Ctrl Pts',(66.6666666666667,42.761423749154,42.761423749154));
#255=CARTESIAN_POINT('Ctrl Pts',(100.,39.1421356237309,39.1421356237309));
#256=CARTESIAN_POINT('Ctrl Pts',(0.,45.2380952380952,50.));
#257=CARTESIAN_POINT('Ctrl Pts',(33.3333333333333,42.5016951355648,47.0864470259953));
#258=CARTESIAN_POINT('Ctrl Pts',(66.6666666666667,39.7628771842812,44.1713471397158));
#259=CARTESIAN_POINT('Ctrl Pts',(100.,37.0264770817508,41.2577941657111));
#260=CARTESIAN_POINT('Ctrl Pts',(0.,35.7142857142857,50.));
#261=CARTESIAN_POINT('Ctrl Pts',(33.3333333333333,34.4197876153669,48.1741952685148));
#262=CARTESIAN_POINT('Ctrl Pts',(66.6666666666667,33.1252216092768,46.3472389161453));
#263=CARTESIAN_POINT('Ctrl Pts',(100.,31.830723510358,44.52143418466));
#264=CARTESIAN_POINT('Ctrl Pts',(0.,21.4285714285714,50.));
#265=CARTESIAN_POINT('Ctrl Pts',(33.3333333333333,21.8471905835403,48.5180432707942));
#266=CARTESIAN_POINT('Ctrl Pts',(66.6666666666667,22.2645513753708,47.0362510547828));
#267=CARTESIAN_POINT('Ctrl Pts',(100.,22.6831705303396,45.554294325577));
#268=CARTESIAN_POINT('Ctrl Pts',(0.,9.52380952380953,50.));
#269=CARTESIAN_POINT('Ctrl Pts',(33.3333333333333,11.4970301726499,47.673522479297));
#270=CARTESIAN_POINT('Ctrl Pts',(66.6666666666667,13.4710070372976,45.3461918671991));
#271=CARTESIAN_POINT('Ctrl Pts',(100.,15.444227686138,43.0197143464961));
#272=CARTESIAN_POINT('Ctrl Pts',(0.,2.38095238095238,50.));
#273=CARTESIAN_POINT('Ctrl Pts',(33.3333333333333,5.5595938876622,46.7328202107808));
#274=CARTESIAN_POINT('Ctrl Pts',(66.6666666666667,8.73705214054934,43.4671446839402));
#275=CARTESIAN_POINT('Ctrl Pts',(100.,11.9156936472592,40.199964894721));
#276=CARTESIAN_POINT('Ctrl Pts',(0.,0.,50.));
#277=CARTESIAN_POINT('Ctrl Pts',(33.3333333333333,3.61928812542302,46.380711874577));
#278=CARTESIAN_POINT('Ctrl Pts',(66.6666666666667,7.23857625084605,42.761423749154));
#279=CARTESIAN_POINT('Ctrl Pts',(100.,10.8578643762691,39.1421356237309));
#280=UNCERTAINTY_MEASURE_WITH_UNIT(LENGTH_MEASURE(0.01),#284,
'DISTANCE_ACCURACY_VALUE',
'Maximum model space distance between geometric entities at asserted c
onnectivities');
#281=UNCERTAINTY_MEASURE_WITH_UNIT(LENGTH_MEASURE(0.01),#284,
'DISTANCE_ACCURACY_VALUE',
'Maximum model space distance between geometric entities at asserted c
onnectivities');
#282=(
GEOMETRIC_REPRESENTATION_CONTEXT(3)
GLOBAL_UNCERTAINTY_ASSIGNED_CONTEXT((#280))
GLOBAL_UNIT_ASSIGNED_CONTEXT((#284,#286,#287))
REPRESENTATION_CONTEXT('','3D')
);
#283=(
GEOMETRIC_REPRESENTATION_CONTEXT(3)
GLOBAL_UNCERTAINTY_ASSIGNED_CONTEXT((#281))
GLOBAL_UNIT_ASSIGNED_CONTEXT((#284,#286,#287))
REPRESENTATION_CONTEXT('','3D')
);
#284=(
LENGTH_UNIT()
NAMED_UNIT(*)
SI_UNIT(.MILLI.,.METRE.)
);
#285=(
LENGTH_UNIT()
NAMED_UNIT(*)
SI_UNIT($,.METRE.)
);
#286=(
NAMED_UNIT(*)
PLANE_ANGLE_UNIT()
SI_UNIT($,.RADIAN.)
);
#287=(
NAMED_UNIT(*)
SI_UNIT($,.STERADIAN.)
SOLID_ANGLE_UNIT()
);
#288=SHAPE_DEFINITION_REPRESENTATION(#289,#290);
#289=PRODUCT_DEFINITION_SHAPE('',$,#292);
#290=SHAPE_REPRESENTATION('',(#116),#282);
#291=PRODUCT_DEFINITION_CONTEXT('part definition',#296,'design');
#292=PRODUCT_DEFINITION('FusionComponent','FusionComponent',#293,#291);
#293=PRODUCT_DEFINITION_FORMATION('',$,#298);
#294=PRODUCT_RELATED_PRODUCT_CATEGORY('FusionComponent',
'FusionComponent',(#298));
#295=APPLICATION_PROTOCOL_DEFINITION('international standard',
'automotive_design',2009,#296);
#296=APPLICATION_CONTEXT(
'Core Data for Automotive Mechanical Design Process');
#297=PRODUCT_CONTEXT('part definition',#296,'mechanical');
#298=PRODUCT('FusionComponent','FusionComponent',$,(#297));
#299=PRESENTATION_STYLE_ASSIGNMENT((#300));
#300=SURFACE_STYLE_USAGE(.BOTH.,#301);
#301=SURFACE_SIDE_STYLE('',(#302));
#302=SURFACE_STYLE_FILL_AREA(#303);
#303=FILL_AREA_STYLE('Polystyrene',(#304));
#304=FILL_AREA_STYLE_COLOUR('Polystyrene',#305);
#305=COLOUR_RGB('Polystyrene',0.,0.,0.);
ENDSEC;
END-ISO-10303-21;
