ISO-10303-21;
HEADER;
/* Generated by software containing ST-Developer
 * from STEP Tools, Inc. (www.steptools.com) 
 */

FILE_DESCRIPTION(
/* description */ (''),
/* implementation_level */ '2;1');

FILE_NAME(
/* name */ 'VTP_Tapered_StriaghtSparHole.step',
/* time_stamp */ '2026-09-04T10:04:28+01:00',
/* author */ (''),
/* organization */ (''),
/* preprocessor_version */ 'ST-DEVELOPER v20.1',
/* originating_system */ 'Autodesk Translation Framework v15.8.0.0',
/* authorisation */ '');

FILE_SCHEMA (('AUTOMOTIVE_DESIGN { 1 0 10303 214 3 1 1 }'));
ENDSEC;

DATA;
#10=MECHANICAL_DESIGN_GEOMETRIC_PRESENTATION_REPRESENTATION('',(#13),#528);
#11=SHAPE_REPRESENTATION_RELATIONSHIP('SRR','None',#535,#12);
#12=ADVANCED_BREP_SHAPE_REPRESENTATION('',(#14),#527);
#13=STYLED_ITEM('',(#545),#14);
#14=MANIFOLD_SOLID_BREP('Body1',#227);
#15=CONICAL_SURFACE('',#256,8.00192035001097,0.0190387788402932);
#16=CONICAL_SURFACE('',#257,8.00540193078004,0.0190470604959271);
#17=FACE_BOUND('',#55,.T.);
#18=B_SPLINE_SURFACE_WITH_KNOTS('',3,3,((#467,#468,#469,#470),(#471,#472,
#473,#474),(#475,#476,#477,#478),(#479,#480,#481,#482),(#483,#484,#485,
#486),(#487,#488,#489,#490),(#491,#492,#493,#494),(#495,#496,#497,#498),
(#499,#500,#501,#502),(#503,#504,#505,#506),(#507,#508,#509,#510),(#511,
#512,#513,#514),(#515,#516,#517,#518)),.UNSPECIFIED.,.F.,.F.,.F.,(4,1,1,
1,1,1,1,1,1,1,4),(4,4),(0.,0.0178571428571429,0.0357142857142857,0.0714285714285714,
0.142857142857143,0.285714285714286,0.428571428571429,0.571428571428571,
0.857142857142857,0.964285714285714,1.),(0.,1.),.UNSPECIFIED.);
#19=CIRCLE('',#247,4.5);
#20=CIRCLE('',#248,4.5);
#21=CIRCLE('',#250,5.14799109395942);
#22=CIRCLE('',#251,5.14575221232031);
#23=CIRCLE('',#254,8.00192034371435);
#24=CIRCLE('',#255,8.00540192447774);
#25=CYLINDRICAL_SURFACE('',#246,4.5);
#26=B_SPLINE_CURVE_WITH_KNOTS('',3,(#329,#330,#331,#332),.UNSPECIFIED.,
 .F.,.F.,(4,4),(-3.89723291183632,-0.0501062970288287),.UNSPECIFIED.);
#27=B_SPLINE_CURVE_WITH_KNOTS('',3,(#336,#337,#338,#339),.UNSPECIFIED.,
 .F.,.F.,(4,4),(-1.49926527258134,-0.0481067545301206),.UNSPECIFIED.);
#28=B_SPLINE_CURVE_WITH_KNOTS('',3,(#343,#344,#345,#346,#347,#348,#349),
 .UNSPECIFIED.,.F.,.F.,(4,3,4),(-3.91481244966099,-0.638631710137622,-0.0503176244058525),
 .UNSPECIFIED.);
#29=B_SPLINE_CURVE_WITH_KNOTS('',3,(#352,#353,#354,#355),.UNSPECIFIED.,
 .F.,.F.,(4,4),(-3.21425826948954,-0.0501215673001333),.UNSPECIFIED.);
#30=B_SPLINE_CURVE_WITH_KNOTS('',4,(#373,#374,#375,#376,#377,#378,#379,
#380,#381,#382,#383,#384,#385,#386,#387,#388,#389,#390,#391,#392,#393,#394,
#395,#396,#397,#398,#399,#400,#401,#402,#403,#404,#405,#406,#407,#408,#409,
#410,#411,#412,#413),.UNSPECIFIED.,.F.,.F.,(5,1,1,1,1,1,1,1,1,1,1,1,1,1,
1,1,1,1,1,1,1,1,1,1,1,1,1,1,1,1,1,1,1,1,1,1,1,5),(1.,2.,3.,4.,5.,6.,7.,
8.,9.,10.,11.,12.,13.,14.,15.,16.,17.,18.,19.,20.,21.,22.,23.,24.,25.,26.,
27.,28.,29.,30.,31.,32.,33.,34.,35.,36.,37.,37.9020684673322),
 .UNSPECIFIED.);
#31=B_SPLINE_CURVE_WITH_KNOTS('',4,(#421,#422,#423,#424,#425,#426,#427,
#428,#429,#430,#431,#432,#433,#434,#435,#436,#437,#438,#439,#440,#441,#442,
#443,#444,#445,#446,#447,#448,#449,#450,#451,#452,#453,#454,#455,#456,#457,
#458,#459,#460,#461),.UNSPECIFIED.,.F.,.F.,(5,1,1,1,1,1,1,1,1,1,1,1,1,1,
1,1,1,1,1,1,1,1,1,1,1,1,1,1,1,1,1,1,1,1,1,1,1,5),(1.,2.,3.,4.,5.,6.,7.,
8.,9.,10.,11.,12.,13.,14.,15.,16.,17.,18.,19.,20.,21.,22.,23.,24.,25.,26.,
27.,28.,29.,30.,31.,32.,33.,34.,35.,36.,37.,37.9020684673322),
 .UNSPECIFIED.);
#32=FACE_OUTER_BOUND('',#45,.T.);
#33=FACE_OUTER_BOUND('',#46,.T.);
#34=FACE_OUTER_BOUND('',#47,.T.);
#35=FACE_OUTER_BOUND('',#48,.T.);
#36=FACE_OUTER_BOUND('',#49,.T.);
#37=FACE_OUTER_BOUND('',#50,.T.);
#38=FACE_OUTER_BOUND('',#51,.T.);
#39=FACE_OUTER_BOUND('',#52,.T.);
#40=FACE_OUTER_BOUND('',#53,.T.);
#41=FACE_OUTER_BOUND('',#54,.T.);
#42=FACE_OUTER_BOUND('',#56,.T.);
#43=FACE_OUTER_BOUND('',#57,.T.);
#44=FACE_OUTER_BOUND('',#58,.T.);
#45=EDGE_LOOP('',(#145,#146,#147,#148));
#46=EDGE_LOOP('',(#149,#150,#151,#152));
#47=EDGE_LOOP('',(#153,#154,#155,#156));
#48=EDGE_LOOP('',(#157,#158,#159,#160));
#49=EDGE_LOOP('',(#161,#162,#163,#164));
#50=EDGE_LOOP('',(#165,#166,#167,#168));
#51=EDGE_LOOP('',(#169,#170,#171,#172,#173,#174));
#52=EDGE_LOOP('',(#175,#176,#177,#178));
#53=EDGE_LOOP('',(#179,#180,#181,#182,#183,#184));
#54=EDGE_LOOP('',(#185,#186,#187,#188));
#55=EDGE_LOOP('',(#189,#190,#191,#192));
#56=EDGE_LOOP('',(#193,#194,#195,#196));
#57=EDGE_LOOP('',(#197,#198,#199,#200));
#58=EDGE_LOOP('',(#201,#202,#203,#204));
#59=LINE('',#319,#77);
#60=LINE('',#321,#78);
#61=LINE('',#323,#79);
#62=LINE('',#324,#80);
#63=LINE('',#327,#81);
#64=LINE('',#333,#82);
#65=LINE('',#340,#83);
#66=LINE('',#350,#84);
#67=LINE('',#359,#85);
#68=LINE('',#363,#86);
#69=LINE('',#367,#87);
#70=LINE('',#414,#88);
#71=LINE('',#417,#89);
#72=LINE('',#418,#90);
#73=LINE('',#466,#91);
#74=LINE('',#519,#92);
#75=LINE('',#521,#93);
#76=LINE('',#523,#94);
#77=VECTOR('',#263,10.);
#78=VECTOR('',#264,10.);
#79=VECTOR('',#265,10.);
#80=VECTOR('',#266,10.);
#81=VECTOR('',#269,10.);
#82=VECTOR('',#270,10.);
#83=VECTOR('',#273,10.);
#84=VECTOR('',#276,10.);
#85=VECTOR('',#281,10.);
#86=VECTOR('',#284,10.);
#87=VECTOR('',#289,10.);
#88=VECTOR('',#294,10.);
#89=VECTOR('',#297,10.);
#90=VECTOR('',#298,10.);
#91=VECTOR('',#305,10.);
#92=VECTOR('',#306,10.);
#93=VECTOR('',#309,10.);
#94=VECTOR('',#312,10.);
#95=VERTEX_POINT('',#317);
#96=VERTEX_POINT('',#318);
#97=VERTEX_POINT('',#320);
#98=VERTEX_POINT('',#322);
#99=VERTEX_POINT('',#326);
#100=VERTEX_POINT('',#328);
#101=VERTEX_POINT('',#335);
#102=VERTEX_POINT('',#342);
#103=VERTEX_POINT('',#357);
#104=VERTEX_POINT('',#358);
#105=VERTEX_POINT('',#360);
#106=VERTEX_POINT('',#362);
#107=VERTEX_POINT('',#366);
#108=VERTEX_POINT('',#368);
#109=VERTEX_POINT('',#370);
#110=VERTEX_POINT('',#372);
#111=VERTEX_POINT('',#416);
#112=VERTEX_POINT('',#420);
#113=VERTEX_POINT('',#462);
#114=VERTEX_POINT('',#464);
#115=EDGE_CURVE('',#95,#96,#59,.T.);
#116=EDGE_CURVE('',#96,#97,#60,.T.);
#117=EDGE_CURVE('',#97,#98,#61,.T.);
#118=EDGE_CURVE('',#98,#95,#62,.T.);
#119=EDGE_CURVE('',#97,#99,#63,.T.);
#120=EDGE_CURVE('',#99,#100,#26,.T.);
#121=EDGE_CURVE('',#98,#100,#64,.T.);
#122=EDGE_CURVE('',#100,#101,#27,.T.);
#123=EDGE_CURVE('',#95,#101,#65,.T.);
#124=EDGE_CURVE('',#101,#102,#28,.T.);
#125=EDGE_CURVE('',#96,#102,#66,.T.);
#126=EDGE_CURVE('',#102,#99,#29,.T.);
#127=EDGE_CURVE('',#103,#104,#67,.T.);
#128=EDGE_CURVE('',#104,#105,#19,.T.);
#129=EDGE_CURVE('',#105,#106,#68,.T.);
#130=EDGE_CURVE('',#106,#103,#20,.T.);
#131=EDGE_CURVE('',#107,#104,#69,.T.);
#132=EDGE_CURVE('',#108,#107,#21,.T.);
#133=EDGE_CURVE('',#109,#108,#22,.T.);
#134=EDGE_CURVE('',#110,#109,#30,.T.);
#135=EDGE_CURVE('',#105,#110,#70,.T.);
#136=EDGE_CURVE('',#111,#110,#71,.T.);
#137=EDGE_CURVE('',#106,#111,#72,.T.);
#138=EDGE_CURVE('',#111,#112,#31,.T.);
#139=EDGE_CURVE('',#113,#112,#23,.T.);
#140=EDGE_CURVE('',#114,#113,#24,.T.);
#141=EDGE_CURVE('',#114,#103,#73,.T.);
#142=EDGE_CURVE('',#112,#109,#74,.T.);
#143=EDGE_CURVE('',#113,#108,#75,.T.);
#144=EDGE_CURVE('',#114,#107,#76,.T.);
#145=ORIENTED_EDGE('',*,*,#115,.T.);
#146=ORIENTED_EDGE('',*,*,#116,.T.);
#147=ORIENTED_EDGE('',*,*,#117,.T.);
#148=ORIENTED_EDGE('',*,*,#118,.T.);
#149=ORIENTED_EDGE('',*,*,#117,.F.);
#150=ORIENTED_EDGE('',*,*,#119,.T.);
#151=ORIENTED_EDGE('',*,*,#120,.T.);
#152=ORIENTED_EDGE('',*,*,#121,.F.);
#153=ORIENTED_EDGE('',*,*,#118,.F.);
#154=ORIENTED_EDGE('',*,*,#121,.T.);
#155=ORIENTED_EDGE('',*,*,#122,.T.);
#156=ORIENTED_EDGE('',*,*,#123,.F.);
#157=ORIENTED_EDGE('',*,*,#115,.F.);
#158=ORIENTED_EDGE('',*,*,#123,.T.);
#159=ORIENTED_EDGE('',*,*,#124,.T.);
#160=ORIENTED_EDGE('',*,*,#125,.F.);
#161=ORIENTED_EDGE('',*,*,#116,.F.);
#162=ORIENTED_EDGE('',*,*,#125,.T.);
#163=ORIENTED_EDGE('',*,*,#126,.T.);
#164=ORIENTED_EDGE('',*,*,#119,.F.);
#165=ORIENTED_EDGE('',*,*,#127,.T.);
#166=ORIENTED_EDGE('',*,*,#128,.T.);
#167=ORIENTED_EDGE('',*,*,#129,.T.);
#168=ORIENTED_EDGE('',*,*,#130,.T.);
#169=ORIENTED_EDGE('',*,*,#128,.F.);
#170=ORIENTED_EDGE('',*,*,#131,.F.);
#171=ORIENTED_EDGE('',*,*,#132,.F.);
#172=ORIENTED_EDGE('',*,*,#133,.F.);
#173=ORIENTED_EDGE('',*,*,#134,.F.);
#174=ORIENTED_EDGE('',*,*,#135,.F.);
#175=ORIENTED_EDGE('',*,*,#129,.F.);
#176=ORIENTED_EDGE('',*,*,#135,.T.);
#177=ORIENTED_EDGE('',*,*,#136,.F.);
#178=ORIENTED_EDGE('',*,*,#137,.F.);
#179=ORIENTED_EDGE('',*,*,#130,.F.);
#180=ORIENTED_EDGE('',*,*,#137,.T.);
#181=ORIENTED_EDGE('',*,*,#138,.T.);
#182=ORIENTED_EDGE('',*,*,#139,.F.);
#183=ORIENTED_EDGE('',*,*,#140,.F.);
#184=ORIENTED_EDGE('',*,*,#141,.T.);
#185=ORIENTED_EDGE('',*,*,#138,.F.);
#186=ORIENTED_EDGE('',*,*,#136,.T.);
#187=ORIENTED_EDGE('',*,*,#134,.T.);
#188=ORIENTED_EDGE('',*,*,#142,.F.);
#189=ORIENTED_EDGE('',*,*,#120,.F.);
#190=ORIENTED_EDGE('',*,*,#126,.F.);
#191=ORIENTED_EDGE('',*,*,#124,.F.);
#192=ORIENTED_EDGE('',*,*,#122,.F.);
#193=ORIENTED_EDGE('',*,*,#139,.T.);
#194=ORIENTED_EDGE('',*,*,#142,.T.);
#195=ORIENTED_EDGE('',*,*,#133,.T.);
#196=ORIENTED_EDGE('',*,*,#143,.F.);
#197=ORIENTED_EDGE('',*,*,#140,.T.);
#198=ORIENTED_EDGE('',*,*,#143,.T.);
#199=ORIENTED_EDGE('',*,*,#132,.T.);
#200=ORIENTED_EDGE('',*,*,#144,.F.);
#201=ORIENTED_EDGE('',*,*,#127,.F.);
#202=ORIENTED_EDGE('',*,*,#141,.F.);
#203=ORIENTED_EDGE('',*,*,#144,.T.);
#204=ORIENTED_EDGE('',*,*,#131,.T.);
#205=PLANE('',#241);
#206=PLANE('',#242);
#207=PLANE('',#243);
#208=PLANE('',#244);
#209=PLANE('',#245);
#210=PLANE('',#249);
#211=PLANE('',#252);
#212=PLANE('',#253);
#213=PLANE('',#258);
#214=ADVANCED_FACE('',(#32),#205,.F.);
#215=ADVANCED_FACE('',(#33),#206,.T.);
#216=ADVANCED_FACE('',(#34),#207,.T.);
#217=ADVANCED_FACE('',(#35),#208,.T.);
#218=ADVANCED_FACE('',(#36),#209,.T.);
#219=ADVANCED_FACE('',(#37),#25,.F.);
#220=ADVANCED_FACE('',(#38),#210,.T.);
#221=ADVANCED_FACE('',(#39),#211,.F.);
#222=ADVANCED_FACE('',(#40),#212,.F.);
#223=ADVANCED_FACE('',(#41,#17),#18,.F.);
#224=ADVANCED_FACE('',(#42),#15,.F.);
#225=ADVANCED_FACE('',(#43),#16,.F.);
#226=ADVANCED_FACE('',(#44),#213,.F.);
#227=CLOSED_SHELL('',(#214,#215,#216,#217,#218,#219,#220,#221,#222,#223,
#224,#225,#226));
#228=DERIVED_UNIT_ELEMENT(#230,1.);
#229=DERIVED_UNIT_ELEMENT(#530,-3.);
#230=(
MASS_UNIT()
NAMED_UNIT(*)
SI_UNIT(.KILO.,.GRAM.)
);
#231=DERIVED_UNIT((#228,#229));
#232=MEASURE_REPRESENTATION_ITEM('density measure',
POSITIVE_RATIO_MEASURE(32.),#231);
#233=PROPERTY_DEFINITION_REPRESENTATION(#238,#235);
#234=PROPERTY_DEFINITION_REPRESENTATION(#239,#236);
#235=REPRESENTATION('material name',(#237),#527);
#236=REPRESENTATION('density',(#232),#527);
#237=DESCRIPTIVE_REPRESENTATION_ITEM('Polyurethane Foam',
'Polyurethane Foam');
#238=PROPERTY_DEFINITION('material property','material name',#537);
#239=PROPERTY_DEFINITION('material property','density of part',#537);
#240=AXIS2_PLACEMENT_3D('',#315,#259,#260);
#241=AXIS2_PLACEMENT_3D('',#316,#261,#262);
#242=AXIS2_PLACEMENT_3D('',#325,#267,#268);
#243=AXIS2_PLACEMENT_3D('',#334,#271,#272);
#244=AXIS2_PLACEMENT_3D('',#341,#274,#275);
#245=AXIS2_PLACEMENT_3D('',#351,#277,#278);
#246=AXIS2_PLACEMENT_3D('',#356,#279,#280);
#247=AXIS2_PLACEMENT_3D('',#361,#282,#283);
#248=AXIS2_PLACEMENT_3D('',#364,#285,#286);
#249=AXIS2_PLACEMENT_3D('',#365,#287,#288);
#250=AXIS2_PLACEMENT_3D('',#369,#290,#291);
#251=AXIS2_PLACEMENT_3D('',#371,#292,#293);
#252=AXIS2_PLACEMENT_3D('',#415,#295,#296);
#253=AXIS2_PLACEMENT_3D('',#419,#299,#300);
#254=AXIS2_PLACEMENT_3D('',#463,#301,#302);
#255=AXIS2_PLACEMENT_3D('',#465,#303,#304);
#256=AXIS2_PLACEMENT_3D('',#520,#307,#308);
#257=AXIS2_PLACEMENT_3D('',#522,#310,#311);
#258=AXIS2_PLACEMENT_3D('',#524,#313,#314);
#259=DIRECTION('axis',(0.,0.,1.));
#260=DIRECTION('refdir',(1.,0.,0.));
#261=DIRECTION('center_axis',(-1.45498617598605E-5,-0.999999996012002,8.81152537601793E-5));
#262=DIRECTION('ref_axis',(0.,-8.81152537695062E-5,-0.999999996117851));
#263=DIRECTION('',(-0.0211266137910371,-8.77881978573577E-5,-0.999776804333326));
#264=DIRECTION('',(-0.999776808081697,1.64081912290555E-5,0.0211266124294777));
#265=DIRECTION('',(0.021126613791037,8.77881978573577E-5,0.999776804333326));
#266=DIRECTION('',(0.999776808081697,-1.64081912290555E-5,-0.0211266124294777));
#267=DIRECTION('center_axis',(0.999776808081697,-1.64081913626823E-5,-0.0211266124294779));
#268=DIRECTION('ref_axis',(-0.021126613791037,-8.77881988693681E-5,-0.999776804333325));
#269=DIRECTION('',(1.45498618720783E-5,0.999999996012002,-8.81152547747302E-5));
#270=DIRECTION('',(1.45498618720783E-5,0.999999996012002,-8.81152547747302E-5));
#271=DIRECTION('center_axis',(-0.0211266137910367,-8.77881988693114E-5,
-0.999776804333325));
#272=DIRECTION('ref_axis',(-0.999776808081697,1.6408191362861E-5,0.0211266124294777));
#273=DIRECTION('',(1.45498618720783E-5,0.999999996012002,-8.81152547747302E-5));
#274=DIRECTION('center_axis',(-0.999776808081697,1.64081913626823E-5,0.021126612429478));
#275=DIRECTION('ref_axis',(0.0211266137910371,8.77881988693681E-5,0.999776804333325));
#276=DIRECTION('',(1.45498618720783E-5,0.999999996012002,-8.81152547747302E-5));
#277=DIRECTION('center_axis',(0.0211266137910367,8.77881988693114E-5,0.999776804333325));
#278=DIRECTION('ref_axis',(0.999776808081697,-1.6408191362861E-5,-0.0211266124294777));
#279=DIRECTION('center_axis',(0.,-1.97389847522711E-16,1.));
#280=DIRECTION('ref_axis',(1.45498619289306E-5,0.999999999894151,1.97389847501817E-16));
#281=DIRECTION('',(1.09627594860443E-6,8.8115238833401E-5,0.999999996117251));
#282=DIRECTION('center_axis',(-1.3481185412023E-17,-1.97389109867091E-16,
1.));
#283=DIRECTION('ref_axis',(-0.999999999894151,1.45498619287469E-5,2.87199502759195E-21));
#284=DIRECTION('',(1.09371181896504E-6,-8.81152706974206E-5,-0.999999996117251));
#285=DIRECTION('center_axis',(1.73385479185159E-17,2.53867922992252E-16,
-1.));
#286=DIRECTION('ref_axis',(-0.999999999894151,1.45498619287469E-5,2.87199502759195E-21));
#287=DIRECTION('center_axis',(-1.3481185412023E-17,-1.97389109867091E-16,
1.));
#288=DIRECTION('ref_axis',(1.,0.,1.3481185412023E-17));
#289=DIRECTION('',(-0.999999999894151,1.45498619287469E-5,0.));
#290=DIRECTION('center_axis',(0.,0.,1.));
#291=DIRECTION('ref_axis',(-0.0908749063231001,0.995862315483806,0.));
#292=DIRECTION('center_axis',(0.,0.,1.));
#293=DIRECTION('ref_axis',(0.0888629862259032,0.996043859314947,0.));
#294=DIRECTION('',(-0.999999999894151,1.45498619287469E-5,0.));
#295=DIRECTION('center_axis',(1.45498618722558E-5,0.999999996012002,-8.81152547747906E-5));
#296=DIRECTION('ref_axis',(0.,8.81152547841176E-5,0.999999996117851));
#297=DIRECTION('',(0.277531823605131,8.06157246053483E-5,0.96071644119767));
#298=DIRECTION('',(-0.999999999894151,1.45498619287406E-5,0.));
#299=DIRECTION('center_axis',(-1.73385479185159E-17,-2.53867922992252E-16,
1.));
#300=DIRECTION('ref_axis',(1.,0.,1.73385479185159E-17));
#301=DIRECTION('center_axis',(0.,0.,-1.));
#302=DIRECTION('ref_axis',(0.0888629862231956,0.996043859315189,0.));
#303=DIRECTION('center_axis',(0.,0.,-1.));
#304=DIRECTION('ref_axis',(-0.0908749063331002,0.995862315482894,0.));
#305=DIRECTION('',(-0.999999999894151,1.45498619287406E-5,0.));
#306=DIRECTION('',(0.000390557003937575,-0.0188828653040553,0.999821626523019));
#307=DIRECTION('center_axis',(-0.00208191819730276,-7.95284089832218E-5,
-0.999997829643571));
#308=DIRECTION('ref_axis',(0.0381717441757224,-0.999271193393757,-6.6885263518162E-13));
#309=DIRECTION('',(0.00381233031029992,-0.0188792745985664,0.999814502359431));
#310=DIRECTION('center_axis',(-0.00208116494934168,-8.77757547915142E-5,
-0.999997830521582));
#311=DIRECTION('ref_axis',(0.0421387980978378,-0.999111766367942,-1.94577229909034E-13));
#312=DIRECTION('',(0.0211266137910367,8.7788198869365E-5,0.999776804333325));
#313=DIRECTION('center_axis',(1.45498618722558E-5,0.999999996012002,-8.81152547747906E-5));
#314=DIRECTION('ref_axis',(0.,8.81152547841176E-5,0.999999996117851));
#315=CARTESIAN_POINT('',(0.,0.,0.));
#316=CARTESIAN_POINT('Origin',(109.43553851321,-0.0479708365910381,-230.2451421339));
#317=CARTESIAN_POINT('',(123.599727869497,-0.0465006789883471,-211.221822987992));
#318=CARTESIAN_POINT('',(122.783466721521,-0.0498925190956463,-249.849828881259));
#319=CARTESIAN_POINT('',(122.987532008515,-0.049044559039496,-240.192827407943));
#320=CARTESIAN_POINT('',(95.2713491569236,-0.0494409942291478,-249.268461279808));
#321=CARTESIAN_POINT('',(102.149378548073,-0.0495538754094333,-249.413803180171));
#322=CARTESIAN_POINT('',(96.0876103048997,-0.0460491541218485,-210.640455386541));
#323=CARTESIAN_POINT('',(95.8835450179056,-0.0468971141425803,-220.297456859857));
#324=CARTESIAN_POINT('',(116.721698478347,-0.046387797772643,-211.076481087629));
#325=CARTESIAN_POINT('Origin',(96.087610159401,-0.0560491540819685,-210.640454505388));
#326=CARTESIAN_POINT('',(95.2714866191858,9.39822681613744,-249.269293763467));
#327=CARTESIAN_POINT('',(95.271349011425,-0.0594409941892678,-249.268460398655));
#328=CARTESIAN_POINT('',(96.0877351752551,8.53618730233209,-210.641211612495));
#329=CARTESIAN_POINT('Ctrl Pts',(95.2714866191858,9.39822681613744,-249.269293763467));
#330=CARTESIAN_POINT('Ctrl Pts',(95.5421962738333,9.11497199975525,-236.458253515387));
#331=CARTESIAN_POINT('Ctrl Pts',(95.8167899724707,8.82535258251843,-223.463403319205));
#332=CARTESIAN_POINT('Ctrl Pts',(96.0877351752551,8.53618730233209,-210.641211612495));
#333=CARTESIAN_POINT('',(96.087610159401,-0.0560491540819685,-210.640454505388));
#334=CARTESIAN_POINT('Origin',(123.599727723998,-0.0565006789484671,-211.22182210684));
#335=CARTESIAN_POINT('',(123.599828028118,6.83731868542294,-211.222429557492));
#336=CARTESIAN_POINT('Ctrl Pts',(96.0877351752551,8.53618730233209,-210.641211612495));
#337=CARTESIAN_POINT('Ctrl Pts',(106.893510529793,8.11137558574374,-210.869514717932));
#338=CARTESIAN_POINT('Ctrl Pts',(118.358752192166,7.25192264725477,-211.111715058795));
#339=CARTESIAN_POINT('Ctrl Pts',(123.599828028118,6.83731868542294,-211.222429557492));
#340=CARTESIAN_POINT('',(123.599727723998,-0.0565006789484671,-211.22182210684));
#341=CARTESIAN_POINT('Origin',(122.783466576022,-0.0598925190557664,-249.849828000107));
#342=CARTESIAN_POINT('',(122.783578546304,7.63573254540671,-249.850506102073));
#343=CARTESIAN_POINT('Ctrl Pts',(123.599599829808,6.83573140848328,-211.222429557492));
#344=CARTESIAN_POINT('Ctrl Pts',(123.36891313772,7.0613071127133,-222.138264277226));
#345=CARTESIAN_POINT('Ctrl Pts',(123.138223860329,7.28688649197575,-233.054098998324));
#346=CARTESIAN_POINT('Ctrl Pts',(122.907537180085,7.51246023957375,-243.969933720466));
#347=CARTESIAN_POINT('Ctrl Pts',(122.866112046929,7.55296722732391,-245.930124514302));
#348=CARTESIAN_POINT('Ctrl Pts',(122.824687132734,7.5934740237233,-247.890315308171));
#349=CARTESIAN_POINT('Ctrl Pts',(122.783262645091,7.63398056195001,-249.850506102073));
#350=CARTESIAN_POINT('',(122.783466576022,-0.0598925190557664,-249.849828000107));
#351=CARTESIAN_POINT('Origin',(95.271349011425,-0.0594409941892678,-249.268460398655));
#352=CARTESIAN_POINT('Ctrl Pts',(122.783578546304,7.6357325454067,-249.850506102073));
#353=CARTESIAN_POINT('Ctrl Pts',(115.556620974239,8.2076154785249,-249.697841090967));
#354=CARTESIAN_POINT('Ctrl Pts',(105.783118069436,8.92635573124663,-249.491377084753));
#355=CARTESIAN_POINT('Ctrl Pts',(95.2714866191858,9.39822681613744,-249.269293763467));
#356=CARTESIAN_POINT('Origin',(90.3957815036991,-0.00131524613992961,-150.));
#357=CARTESIAN_POINT('',(94.8953461970148,-0.0639057459551498,-300.));
#358=CARTESIAN_POINT('',(94.8955106384077,-0.0506884600788206,-150.));
#359=CARTESIAN_POINT('',(94.8954284177112,-0.0572971030169851,-225.));
#360=CARTESIAN_POINT('',(85.8960509341488,-0.0505575191826764,-150.));
#361=CARTESIAN_POINT('Origin',(90.3957815036991,-0.00131524613992961,-150.));
#362=CARTESIAN_POINT('',(85.8962149909223,-0.0637748098386087,-300.));
#363=CARTESIAN_POINT('',(85.8961329625355,-0.0571661645106425,-225.));
#364=CARTESIAN_POINT('Origin',(90.3957815036991,-0.0013152461399,-300.));
#365=CARTESIAN_POINT('Origin',(88.5530069332543,2.74655662002224,-150.));
#366=CARTESIAN_POINT('',(125.063772772769,-0.0511274041275522,-150.));
#367=CARTESIAN_POINT('',(125.063772772769,-0.0511274041275522,-150.));
#368=CARTESIAN_POINT('',(129.743940658313,5.07556292679289,-150.));
#369=CARTESIAN_POINT('Origin',(130.211763866729,-0.0511274041275528,-150.));
#370=CARTESIAN_POINT('',(130.668827316535,5.07649710636362,-150.));
#371=CARTESIAN_POINT('Origin',(130.21156040857,-0.0488977862743373,-150.));
#372=CARTESIAN_POINT('',(52.7062351056597,-0.0500746119448802,-150.));
#373=CARTESIAN_POINT('Ctrl Pts',(52.7062351056598,-0.0500746119448803,-150.));
#374=CARTESIAN_POINT('Ctrl Pts',(52.7772926277979,0.468381222213737,-150.));
#375=CARTESIAN_POINT('Ctrl Pts',(52.990294821664,0.9756776544541,-150.));
#376=CARTESIAN_POINT('Ctrl Pts',(53.3447427390807,1.47124271979239,-150.));
#377=CARTESIAN_POINT('Ctrl Pts',(53.8398088562417,1.95430974176094,-150.));
#378=CARTESIAN_POINT('Ctrl Pts',(54.4743492431792,2.42397817974694,-150.));
#379=CARTESIAN_POINT('Ctrl Pts',(55.2468670553611,2.87918929005695,-150.));
#380=CARTESIAN_POINT('Ctrl Pts',(56.155561211562,3.31876263432011,-150.));
#381=CARTESIAN_POINT('Ctrl Pts',(57.1983142243948,3.74143258789139,-150.));
#382=CARTESIAN_POINT('Ctrl Pts',(58.3726800308436,4.1458605093193,-150.));
#383=CARTESIAN_POINT('Ctrl Pts',(59.6759326701346,4.53068341821689,-150.));
#384=CARTESIAN_POINT('Ctrl Pts',(61.1050176058649,4.89450182579395,-150.));
#385=CARTESIAN_POINT('Ctrl Pts',(62.6565882344056,5.23598926006677,-150.));
#386=CARTESIAN_POINT('Ctrl Pts',(64.3270423933056,5.55383141851935,-150.));
#387=CARTESIAN_POINT('Ctrl Pts',(66.1124615139523,5.84684786278082,-150.));
#388=CARTESIAN_POINT('Ctrl Pts',(68.0086836383785,6.11391900181903,-150.));
#389=CARTESIAN_POINT('Ctrl Pts',(70.0112790803264,6.35411995608569,-150.));
#390=CARTESIAN_POINT('Ctrl Pts',(72.1155747641837,6.56664754070992,-150.));
#391=CARTESIAN_POINT('Ctrl Pts',(74.3166420555153,6.75090545177242,-150.));
#392=CARTESIAN_POINT('Ctrl Pts',(76.6093454389347,6.90647992737001,-150.));
#393=CARTESIAN_POINT('Ctrl Pts',(78.9883425181036,7.03313974761559,-150.));
#394=CARTESIAN_POINT('Ctrl Pts',(81.4480718462646,7.13089708197694,-150.));
#395=CARTESIAN_POINT('Ctrl Pts',(83.9827772651763,7.19994664193787,-150.));
#396=CARTESIAN_POINT('Ctrl Pts',(86.5865444135166,7.24067785046611,-150.));
#397=CARTESIAN_POINT('Ctrl Pts',(89.253300726883,7.25369918094872,-150.));
#398=CARTESIAN_POINT('Ctrl Pts',(91.9768154377922,7.2397773098533,-150.));
#399=CARTESIAN_POINT('Ctrl Pts',(94.750711745148,7.19984928619594,-150.));
#400=CARTESIAN_POINT('Ctrl Pts',(97.5685276615802,7.1350103620733,-150.));
#401=CARTESIAN_POINT('Ctrl Pts',(100.423679505041,7.04648965372717,-150.));
#402=CARTESIAN_POINT('Ctrl Pts',(103.309498407208,6.93560146367359,-150.));
#403=CARTESIAN_POINT('Ctrl Pts',(106.219242482954,6.80376961963818,-150.));
#404=CARTESIAN_POINT('Ctrl Pts',(109.146108999811,6.65249096615309,-150.));
#405=CARTESIAN_POINT('Ctrl Pts',(112.083270886377,6.48329885615361,-150.));
#406=CARTESIAN_POINT('Ctrl Pts',(115.023876732313,6.29776315097833,-150.));
#407=CARTESIAN_POINT('Ctrl Pts',(117.961038618878,6.09746588143356,-150.));
#408=CARTESIAN_POINT('Ctrl Pts',(120.887905135735,5.88398907832554,-150.));
#409=CARTESIAN_POINT('Ctrl Pts',(123.797661428774,5.65891531542141,-150.));
#410=CARTESIAN_POINT('Ctrl Pts',(126.613554513127,5.43787394801483,-150.));
#411=CARTESIAN_POINT('Ctrl Pts',(128.685026572251,5.25341460077664,-150.));
#412=CARTESIAN_POINT('Ctrl Pts',(130.031820240515,5.13332823096277,-150.));
#413=CARTESIAN_POINT('Ctrl Pts',(130.668827316535,5.07649710636361,-150.));
#414=CARTESIAN_POINT('',(125.063772772769,-0.0511274041275522,-150.));
#415=CARTESIAN_POINT('Origin',(121.894073240914,-0.0642985737059319,-300.));
#416=CARTESIAN_POINT('',(9.37422603868452,-0.0626614254647232,-300.));
#417=CARTESIAN_POINT('',(9.37422603868454,-0.0626614254647232,-300.));
#418=CARTESIAN_POINT('',(121.894073240914,-0.0642985737059319,-300.));
#419=CARTESIAN_POINT('Origin',(65.1178765107417,4.28624995332812,-300.));
#420=CARTESIAN_POINT('',(130.610233314328,7.90943222245863,-300.));
#421=CARTESIAN_POINT('Ctrl Pts',(9.37422603868457,-0.0626614254647232,-300.));
#422=CARTESIAN_POINT('Ctrl Pts',(9.48472429209859,0.743565169876552,-300.));
#423=CARTESIAN_POINT('Ctrl Pts',(9.81595411390123,1.53243829743556,-300.));
#424=CARTESIAN_POINT('Ctrl Pts',(10.3671396129485,2.30306852102281,-300.));
#425=CARTESIAN_POINT('Ctrl Pts',(11.1369939453917,3.05426361766088,-300.));
#426=CARTESIAN_POINT('Ctrl Pts',(12.1237382388519,3.78462319845568,-300.));
#427=CARTESIAN_POINT('Ctrl Pts',(13.325044819897,4.49250086024794,-300.));
#428=CARTESIAN_POINT('Ctrl Pts',(14.7381129107388,5.17606095813592,-300.));
#429=CARTESIAN_POINT('Ctrl Pts',(16.3596497050587,5.83333537799822,-300.));
#430=CARTESIAN_POINT('Ctrl Pts',(18.1858514438337,6.46224246066789,-300.));
#431=CARTESIAN_POINT('Ctrl Pts',(20.2124791120328,7.0606626986296,-300.));
#432=CARTESIAN_POINT('Ctrl Pts',(22.4347827419208,7.62641981184515,-300.));
#433=CARTESIAN_POINT('Ctrl Pts',(24.8475581855803,8.15745106532193,-300.));
#434=CARTESIAN_POINT('Ctrl Pts',(27.445203887435,8.65171264824155,-300.));
#435=CARTESIAN_POINT('Ctrl Pts',(30.2216262633781,9.10736891570223,-300.));
#436=CARTESIAN_POINT('Ctrl Pts',(33.170353245818,9.52267884367348,-300.));
#437=CARTESIAN_POINT('Ctrl Pts',(36.2844964353297,9.89620419491276,-300.));
#438=CARTESIAN_POINT('Ctrl Pts',(39.5567889490032,10.2266959739199,-300.));
#439=CARTESIAN_POINT('Ctrl Pts',(42.9795664962695,10.5132268961569,-300.));
#440=CARTESIAN_POINT('Ctrl Pts',(46.5448430755973,10.7551535396994,-300.));
#441=CARTESIAN_POINT('Ctrl Pts',(50.2443109744934,10.9521163452369,-300.));
#442=CARTESIAN_POINT('Ctrl Pts',(54.0693218453279,11.1041342369435,-300.));
#443=CARTESIAN_POINT('Ctrl Pts',(58.0109245536833,11.2115100016071,-300.));
#444=CARTESIAN_POINT('Ctrl Pts',(62.0599219508765,11.2748492128037,-300.));
#445=CARTESIAN_POINT('Ctrl Pts',(66.2068708739597,11.2950980792454,-300.));
#446=CARTESIAN_POINT('Ctrl Pts',(70.4420821457194,11.2734488239096,-300.));
#447=CARTESIAN_POINT('Ctrl Pts',(74.7556394988516,11.2113586082132,-300.));
#448=CARTESIAN_POINT('Ctrl Pts',(79.1374941968326,11.1105306078381,-300.));
#449=CARTESIAN_POINT('Ctrl Pts',(83.5774082613959,10.9728761643831,-300.));
#450=CARTESIAN_POINT('Ctrl Pts',(88.0650112450555,10.8004390886667,-300.));
#451=CARTESIAN_POINT('Ctrl Pts',(92.5898191552798,10.5954335090753,-300.));
#452=CARTESIAN_POINT('Ctrl Pts',(97.1412533786662,10.3601870990411,-300.));
#453=CARTESIAN_POINT('Ctrl Pts',(101.708697453464,10.0970843045188,-300.));
#454=CARTESIAN_POINT('Ctrl Pts',(106.281497069572,9.80856634398615,-300.));
#455=CARTESIAN_POINT('Ctrl Pts',(110.84894114437,9.49709336009483,-300.));
#456=CARTESIAN_POINT('Ctrl Pts',(115.400375367756,9.16512549549664,-300.));
#457=CARTESIAN_POINT('Ctrl Pts',(119.925202276526,8.8151237371765,-300.));
#458=CARTESIAN_POINT('Ctrl Pts',(124.30406686762,8.47139256986695,-300.));
#459=CARTESIAN_POINT('Ctrl Pts',(127.5253168865,8.18454840358602,-300.));
#460=CARTESIAN_POINT('Ctrl Pts',(129.619653187206,7.99780766560387,-300.));
#461=CARTESIAN_POINT('Ctrl Pts',(130.610233314328,7.90943222245863,-300.));
#462=CARTESIAN_POINT('',(129.171985015346,7.90797952317358,-300.));
#463=CARTESIAN_POINT('Origin',(129.899158777066,-0.0608313986273362,-300.));
#464=CARTESIAN_POINT('',(121.894073240914,-0.0642985737059319,-300.));
#465=CARTESIAN_POINT('Origin',(129.899475165392,-0.064298573708039,-300.));
#466=CARTESIAN_POINT('',(121.894073240914,-0.0642985737059319,-300.));
#467=CARTESIAN_POINT('Ctrl Pts',(9.37422603868457,-0.0626614254647232,-300.));
#468=CARTESIAN_POINT('Ctrl Pts',(23.8182290610096,-0.0584658209581089,-250.));
#469=CARTESIAN_POINT('Ctrl Pts',(38.2622320833347,-0.0542702164514946,-200.));
#470=CARTESIAN_POINT('Ctrl Pts',(52.7062351056598,-0.0500746119448803,-150.));
#471=CARTESIAN_POINT('Ctrl Pts',(9.47131208899421,0.645705932189274,-300.));
#472=CARTESIAN_POINT('Ctrl Pts',(23.9036125288967,0.566375272809852,-250.));
#473=CARTESIAN_POINT('Ctrl Pts',(38.3363672740207,0.484782063849045,-200.));
#474=CARTESIAN_POINT('Ctrl Pts',(52.7686677139231,0.405451404469623,-150.));
#475=CARTESIAN_POINT('Ctrl Pts',(9.75509099056822,1.39172193164699,-300.));
#476=CARTESIAN_POINT('Ctrl Pts',(24.1538414886236,1.22297155042246,-250.));
#477=CARTESIAN_POINT('Ctrl Pts',(38.5524053996889,1.0539383132777,-200.));
#478=CARTESIAN_POINT('Ctrl Pts',(52.9511558977443,0.885187932053168,-150.));
#479=CARTESIAN_POINT('Ctrl Pts',(10.3956955921905,2.33701284759327,-300.));
#480=CARTESIAN_POINT('Ctrl Pts',(24.717952664048,2.05648148937543,-250.));
#481=CARTESIAN_POINT('Ctrl Pts',(39.0408490084026,1.77360247495067,-200.));
#482=CARTESIAN_POINT('Ctrl Pts',(53.3631060802601,1.49307111673282,-150.));
#483=CARTESIAN_POINT('Ctrl Pts',(11.5782920835144,3.48847569906468,-300.));
#484=CARTESIAN_POINT('Ctrl Pts',(25.7600657650023,3.07036104986151,-250.));
#485=CARTESIAN_POINT('Ctrl Pts',(39.9418184134055,2.651650836937,-200.));
#486=CARTESIAN_POINT('Ctrl Pts',(54.1235920948933,2.23353618773382,-150.));
#487=CARTESIAN_POINT('Ctrl Pts',(15.2428316826591,5.67526610080967,-300.));
#488=CARTESIAN_POINT('Ctrl Pts',(28.9883778924838,4.9974591209998,-250.));
#489=CARTESIAN_POINT('Ctrl Pts',(42.7345818089147,4.31759080117187,-200.));
#490=CARTESIAN_POINT('Ctrl Pts',(56.4801280187394,3.639783821362,-150.));
#491=CARTESIAN_POINT('Ctrl Pts',(24.1340345799927,8.34605135139628,-300.));
#492=CARTESIAN_POINT('Ctrl Pts',(36.8219830152855,7.34975407993171,-250.));
#493=CARTESIAN_POINT('Ctrl Pts',(49.5097979818564,6.35356871101321,-200.));
#494=CARTESIAN_POINT('Ctrl Pts',(62.1977464171492,5.35727143954864,-150.));
#495=CARTESIAN_POINT('Ctrl Pts',(39.962838537298,10.5175793454016,-300.));
#496=CARTESIAN_POINT('Ctrl Pts',(50.7673300424788,9.26304797333632,-250.));
#497=CARTESIAN_POINT('Ctrl Pts',(61.5721994008239,8.00823573014618,-200.));
#498=CARTESIAN_POINT('Ctrl Pts',(72.3766909060047,6.75370435808093,-150.));
#499=CARTESIAN_POINT('Ctrl Pts',(66.5682691737395,11.7725879551384,-300.));
#500=CARTESIAN_POINT('Ctrl Pts',(74.2073424487322,10.3691563110302,-250.));
#501=CARTESIAN_POINT('Ctrl Pts',(81.8466299278923,8.96418769137576,-200.));
#502=CARTESIAN_POINT('Ctrl Pts',(89.485703202885,7.56075604726756,-150.));
#503=CARTESIAN_POINT('Ctrl Pts',(96.8779513878938,10.5881800181344,-300.));
#504=CARTESIAN_POINT('Ctrl Pts',(100.911074532337,9.32395258437136,-250.));
#505=CARTESIAN_POINT('Ctrl Pts',(104.943665649299,8.06333258969081,-200.));
#506=CARTESIAN_POINT('Ctrl Pts',(108.976788793742,6.79910515592778,-150.));
#507=CARTESIAN_POINT('Ctrl Pts',(120.904587687313,8.76077262174932,-300.));
#508=CARTESIAN_POINT('Ctrl Pts',(122.078583845382,7.7162642434303,-250.));
#509=CARTESIAN_POINT('Ctrl Pts',(123.253473420234,6.66847241199275,-200.));
#510=CARTESIAN_POINT('Ctrl Pts',(124.427469578302,5.62396403367373,-150.));
#511=CARTESIAN_POINT('Ctrl Pts',(128.680570069864,8.08158875950335,-300.));
#512=CARTESIAN_POINT('Ctrl Pts',(128.929729884453,7.11542618095809,-250.));
#513=CARTESIAN_POINT('Ctrl Pts',(129.178769257165,6.15336747045592,-200.));
#514=CARTESIAN_POINT('Ctrl Pts',(129.427929071755,5.18720489191066,-150.));
#515=CARTESIAN_POINT('Ctrl Pts',(130.610233314328,7.90943222245862,-300.));
#516=CARTESIAN_POINT('Ctrl Pts',(130.629764648397,6.96512051709361,-250.));
#517=CARTESIAN_POINT('Ctrl Pts',(130.649295982466,6.02080881172861,-200.));
#518=CARTESIAN_POINT('Ctrl Pts',(130.668827316535,5.07649710636361,-150.));
#519=CARTESIAN_POINT('',(130.610233314328,7.90943222245863,-300.));
#520=CARTESIAN_POINT('Origin',(129.899475987575,-0.0608192813178671,-300.000000661371));
#521=CARTESIAN_POINT('',(129.171985015346,7.90797952317358,-300.));
#522=CARTESIAN_POINT('Origin',(129.899792537125,-0.0642851881551565,-300.000000661679));
#523=CARTESIAN_POINT('',(121.894073240914,-0.0642985737059319,-300.));
#524=CARTESIAN_POINT('Origin',(121.894073240914,-0.0642985737059319,-300.));
#525=UNCERTAINTY_MEASURE_WITH_UNIT(LENGTH_MEASURE(0.01),#529,
'DISTANCE_ACCURACY_VALUE',
'Maximum model space distance between geometric entities at asserted c
onnectivities');
#526=UNCERTAINTY_MEASURE_WITH_UNIT(LENGTH_MEASURE(0.01),#529,
'DISTANCE_ACCURACY_VALUE',
'Maximum model space distance between geometric entities at asserted c
onnectivities');
#527=(
GEOMETRIC_REPRESENTATION_CONTEXT(3)
GLOBAL_UNCERTAINTY_ASSIGNED_CONTEXT((#525))
GLOBAL_UNIT_ASSIGNED_CONTEXT((#529,#531,#532))
REPRESENTATION_CONTEXT('','3D')
);
#528=(
GEOMETRIC_REPRESENTATION_CONTEXT(3)
GLOBAL_UNCERTAINTY_ASSIGNED_CONTEXT((#526))
GLOBAL_UNIT_ASSIGNED_CONTEXT((#529,#531,#532))
REPRESENTATION_CONTEXT('','3D')
);
#529=(
LENGTH_UNIT()
NAMED_UNIT(*)
SI_UNIT(.MILLI.,.METRE.)
);
#530=(
LENGTH_UNIT()
NAMED_UNIT(*)
SI_UNIT($,.METRE.)
);
#531=(
NAMED_UNIT(*)
PLANE_ANGLE_UNIT()
SI_UNIT($,.RADIAN.)
);
#532=(
NAMED_UNIT(*)
SI_UNIT($,.STERADIAN.)
SOLID_ANGLE_UNIT()
);
#533=SHAPE_DEFINITION_REPRESENTATION(#534,#535);
#534=PRODUCT_DEFINITION_SHAPE('',$,#537);
#535=SHAPE_REPRESENTATION('',(#240),#527);
#536=PRODUCT_DEFINITION_CONTEXT('part definition',#541,'design');
#537=PRODUCT_DEFINITION('2026-09-04-10-04-27-952','Foam 2a v1(Mirror)',
#538,#536);
#538=PRODUCT_DEFINITION_FORMATION('',$,#543);
#539=PRODUCT_RELATED_PRODUCT_CATEGORY('Foam 2a v1(Mirror)',
'Foam 2a v1(Mirror)',(#543));
#540=APPLICATION_PROTOCOL_DEFINITION('international standard',
'automotive_design',2009,#541);
#541=APPLICATION_CONTEXT(
'Core Data for Automotive Mechanical Design Process');
#542=PRODUCT_CONTEXT('part definition',#541,'mechanical');
#543=PRODUCT('2026-09-04-10-04-27-952','Foam 2a v1(Mirror)',$,(#542));
#544=PRESENTATION_STYLE_ASSIGNMENT((#546));
#545=PRESENTATION_STYLE_ASSIGNMENT((#547));
#546=SURFACE_STYLE_USAGE(.BOTH.,#548);
#547=SURFACE_STYLE_USAGE(.BOTH.,#549);
#548=SURFACE_SIDE_STYLE('',(#550));
#549=SURFACE_SIDE_STYLE('',(#551));
#550=SURFACE_STYLE_FILL_AREA(#552);
#551=SURFACE_STYLE_FILL_AREA(#553);
#552=FILL_AREA_STYLE('Coarse Textured - Umber',(#554));
#553=FILL_AREA_STYLE('Coarse Textured - Umber',(#555));
#554=FILL_AREA_STYLE_COLOUR('Coarse Textured - Umber',#556);
#555=FILL_AREA_STYLE_COLOUR('Coarse Textured - Umber',#557);
#556=COLOUR_RGB('Coarse Textured - Umber',0.686274509803922,0.454901960784314,
0.266666666666667);
#557=COLOUR_RGB('Coarse Textured - Umber',0.654901960784314,0.862745098039216,
0.913725490196078);
ENDSEC;
END-ISO-10303-21;
